<svg width="836" height="235" viewBox="0 0 836 235" fill="none" xmlns="http://www.w3.org/2000/svg">
<g filter="url(#filter0_d_501_116)">
<rect x="4" width="828" height="227" rx="10" fill="black"/>
</g>
<path d="M141.613 88L131.209 51.6364H139.607L145.626 76.9027H145.928L152.569 51.6364H159.76L166.383 76.956H166.702L172.721 51.6364H181.12L170.715 88H163.222L156.297 64.2251H156.013L149.106 88H141.613ZM194.592 88.5327C191.787 88.5327 189.372 87.9645 187.348 86.8281C185.335 85.6799 183.785 84.0582 182.696 81.9631C181.607 79.8561 181.062 77.3643 181.062 74.4879C181.062 71.6825 181.607 69.2204 182.696 67.1016C183.785 64.9827 185.318 63.3314 187.294 62.1477C189.283 60.964 191.615 60.3722 194.29 60.3722C196.089 60.3722 197.764 60.6622 199.315 61.2422C200.877 61.8104 202.239 62.6686 203.399 63.8168C204.571 64.965 205.482 66.4091 206.133 68.1491C206.784 69.8774 207.11 71.9015 207.11 74.2216V76.299H184.081V71.6115H199.99C199.99 70.5225 199.753 69.5578 199.279 68.7173C198.806 67.8769 198.149 67.2199 197.309 66.7464C196.48 66.2611 195.515 66.0185 194.414 66.0185C193.266 66.0185 192.248 66.2848 191.36 66.8175C190.484 67.3383 189.798 68.0426 189.301 68.9304C188.804 69.8063 188.549 70.7829 188.537 71.8601V76.3168C188.537 77.6662 188.786 78.8321 189.283 79.8146C189.792 80.7971 190.508 81.5547 191.431 82.0874C192.355 82.62 193.45 82.8864 194.716 82.8864C195.557 82.8864 196.326 82.768 197.025 82.5312C197.723 82.2945 198.321 81.9394 198.818 81.4659C199.315 80.9924 199.694 80.4124 199.954 79.7259L206.95 80.1875C206.595 81.8684 205.867 83.3362 204.766 84.5909C203.677 85.8338 202.268 86.8045 200.54 87.5028C198.824 88.1894 196.841 88.5327 194.592 88.5327ZM223.618 88V60.7273H230.827V65.5391H231.146C231.715 63.9411 232.662 62.6804 233.987 61.7571C235.313 60.8338 236.899 60.3722 238.746 60.3722C240.616 60.3722 242.208 60.8397 243.522 61.7749C244.836 62.6982 245.712 63.9529 246.15 65.5391H246.434C246.99 63.9766 247.997 62.7277 249.453 61.7926C250.92 60.8456 252.655 60.3722 254.655 60.3722C257.2 60.3722 259.266 61.183 260.852 62.8047C262.45 64.4145 263.249 66.6991 263.249 69.6584V88H255.703V71.1499C255.703 69.6347 255.3 68.4983 254.495 67.7408C253.69 66.9832 252.684 66.6044 251.477 66.6044C250.104 66.6044 249.032 67.0424 248.263 67.9183C247.494 68.7824 247.109 69.9247 247.109 71.3452V88H239.776V70.9901C239.776 69.6525 239.391 68.5871 238.622 67.794C237.864 67.0009 236.864 66.6044 235.621 66.6044C234.78 66.6044 234.023 66.8175 233.348 67.2436C232.685 67.6579 232.159 68.2438 231.768 69.0014C231.377 69.7472 231.182 70.6231 231.182 71.6293V88H223.618ZM277.001 88.5149C275.26 88.5149 273.71 88.2131 272.349 87.6094C270.987 86.9938 269.91 86.0883 269.117 84.8928C268.336 83.6854 267.945 82.1821 267.945 80.3828C267.945 78.8677 268.223 77.5952 268.78 76.5653C269.336 75.5355 270.094 74.7069 271.052 74.0795C272.011 73.4522 273.1 72.9787 274.319 72.6591C275.55 72.3395 276.841 72.1146 278.19 71.9844C279.776 71.8187 281.055 71.6648 282.025 71.5227C282.996 71.3688 283.7 71.1439 284.138 70.848C284.576 70.5521 284.795 70.1141 284.795 69.5341V69.4276C284.795 68.303 284.44 67.433 283.73 66.8175C283.032 66.2019 282.037 65.8942 280.747 65.8942C279.386 65.8942 278.303 66.196 277.498 66.7997C276.693 67.3916 276.16 68.1373 275.9 69.0369L268.904 68.4688C269.259 66.8116 269.957 65.3793 270.999 64.1719C272.041 62.9527 273.384 62.0175 275.03 61.3665C276.687 60.7036 278.604 60.3722 280.782 60.3722C282.298 60.3722 283.748 60.5497 285.133 60.9048C286.529 61.2599 287.766 61.8104 288.844 62.5561C289.933 63.3018 290.791 64.2607 291.418 65.4325C292.046 66.5926 292.359 67.9834 292.359 69.6051V88H285.186V84.218H284.973C284.535 85.0703 283.949 85.822 283.215 86.473C282.481 87.1122 281.599 87.6153 280.569 87.9822C279.54 88.3374 278.35 88.5149 277.001 88.5149ZM279.167 83.2947C280.279 83.2947 281.262 83.0758 282.114 82.6378C282.966 82.188 283.635 81.5843 284.121 80.8267C284.606 80.0691 284.849 79.2109 284.849 78.2521V75.358C284.612 75.5118 284.286 75.6539 283.872 75.7841C283.47 75.9025 283.014 76.0149 282.505 76.1214C281.996 76.2161 281.487 76.3049 280.978 76.3878C280.469 76.4588 280.007 76.5239 279.593 76.5831C278.705 76.7133 277.93 76.9205 277.267 77.2045C276.604 77.4886 276.089 77.8733 275.722 78.3587C275.355 78.8321 275.172 79.424 275.172 80.1342C275.172 81.1641 275.545 81.9512 276.29 82.4957C277.048 83.0284 278.007 83.2947 279.167 83.2947ZM305.081 80.152L305.099 71.0788H306.2L314.936 60.7273H323.618L311.882 74.4347H310.088L305.081 80.152ZM298.227 88V51.6364H305.791V88H298.227ZM315.273 88L307.247 76.1214L312.29 70.777L324.133 88H315.273ZM338.635 88.5327C335.83 88.5327 333.415 87.9645 331.391 86.8281C329.378 85.6799 327.828 84.0582 326.739 81.9631C325.65 79.8561 325.105 77.3643 325.105 74.4879C325.105 71.6825 325.65 69.2204 326.739 67.1016C327.828 64.9827 329.361 63.3314 331.337 62.1477C333.326 60.964 335.658 60.3722 338.333 60.3722C340.132 60.3722 341.807 60.6622 343.358 61.2422C344.92 61.8104 346.282 62.6686 347.442 63.8168C348.614 64.965 349.525 66.4091 350.176 68.1491C350.827 69.8774 351.153 71.9015 351.153 74.2216V76.299H328.124V71.6115H344.033C344.033 70.5225 343.796 69.5578 343.322 68.7173C342.849 67.8769 342.192 67.2199 341.352 66.7464C340.523 66.2611 339.558 66.0185 338.457 66.0185C337.309 66.0185 336.291 66.2848 335.403 66.8175C334.527 67.3383 333.841 68.0426 333.344 68.9304C332.847 69.8063 332.592 70.7829 332.58 71.8601V76.3168C332.58 77.6662 332.829 78.8321 333.326 79.8146C333.835 80.7971 334.551 81.5547 335.474 82.0874C336.398 82.62 337.493 82.8864 338.759 82.8864C339.6 82.8864 340.369 82.768 341.067 82.5312C341.766 82.2945 342.364 81.9394 342.861 81.4659C343.358 80.9924 343.737 80.4124 343.997 79.7259L350.993 80.1875C350.638 81.8684 349.91 83.3362 348.809 84.5909C347.72 85.8338 346.311 86.8045 344.583 87.5028C342.867 88.1894 340.884 88.5327 338.635 88.5327ZM382.327 60.7273V66.4091H365.495V60.7273H382.327ZM369.348 88V58.7564C369.348 56.7796 369.733 55.1401 370.502 53.8381C371.283 52.536 372.349 51.5594 373.698 50.9084C375.047 50.2573 376.58 49.9318 378.297 49.9318C379.457 49.9318 380.516 50.0206 381.475 50.1982C382.446 50.3757 383.168 50.5355 383.641 50.6776L382.292 56.3594C381.996 56.2647 381.629 56.1759 381.191 56.093C380.765 56.0102 380.327 55.9688 379.877 55.9688C378.764 55.9688 377.989 56.2292 377.551 56.75C377.113 57.259 376.894 57.9751 376.894 58.8984V88H369.348ZM386.948 88V60.7273H394.512V88H386.948ZM390.748 57.2116C389.623 57.2116 388.659 56.8388 387.854 56.093C387.061 55.3355 386.664 54.4299 386.664 53.3764C386.664 52.3348 387.061 51.4411 387.854 50.6953C388.659 49.9377 389.623 49.5589 390.748 49.5589C391.872 49.5589 392.831 49.9377 393.624 50.6953C394.429 51.4411 394.832 52.3348 394.832 53.3764C394.832 54.4299 394.429 55.3355 393.624 56.093C392.831 56.8388 391.872 57.2116 390.748 57.2116ZM408.135 72.233V88H400.571V60.7273H407.78V65.5391H408.1C408.703 63.9529 409.715 62.6982 411.136 61.7749C412.556 60.8397 414.279 60.3722 416.303 60.3722C418.197 60.3722 419.848 60.7865 421.257 61.6151C422.665 62.4437 423.76 63.6274 424.541 65.1662C425.323 66.6932 425.713 68.5161 425.713 70.6349V88H418.149V71.9844C418.161 70.3153 417.735 69.0133 416.871 68.0781C416.007 67.1312 414.817 66.6577 413.302 66.6577C412.284 66.6577 411.384 66.8767 410.603 67.3146C409.834 67.7526 409.23 68.3918 408.792 69.2322C408.366 70.0608 408.147 71.0611 408.135 72.233ZM439.452 88.5149C437.712 88.5149 436.161 88.2131 434.8 87.6094C433.438 86.9938 432.361 86.0883 431.568 84.8928C430.787 83.6854 430.396 82.1821 430.396 80.3828C430.396 78.8677 430.674 77.5952 431.231 76.5653C431.787 75.5355 432.545 74.7069 433.504 74.0795C434.462 73.4522 435.551 72.9787 436.771 72.6591C438.002 72.3395 439.292 72.1146 440.641 71.9844C442.228 71.8187 443.506 71.6648 444.477 71.5227C445.447 71.3688 446.152 71.1439 446.589 70.848C447.027 70.5521 447.246 70.1141 447.246 69.5341V69.4276C447.246 68.303 446.891 67.433 446.181 66.8175C445.483 66.2019 444.488 65.8942 443.198 65.8942C441.837 65.8942 440.754 66.196 439.949 66.7997C439.144 67.3916 438.611 68.1373 438.351 69.0369L431.355 68.4688C431.71 66.8116 432.409 65.3793 433.45 64.1719C434.492 62.9527 435.835 62.0175 437.481 61.3665C439.138 60.7036 441.056 60.3722 443.234 60.3722C444.749 60.3722 446.199 60.5497 447.584 60.9048C448.981 61.2599 450.218 61.8104 451.295 62.5561C452.384 63.3018 453.242 64.2607 453.869 65.4325C454.497 66.5926 454.81 67.9834 454.81 69.6051V88H447.637V84.218H447.424C446.986 85.0703 446.4 85.822 445.666 86.473C444.932 87.1122 444.05 87.6153 443.021 87.9822C441.991 88.3374 440.801 88.5149 439.452 88.5149ZM441.618 83.2947C442.731 83.2947 443.713 83.0758 444.565 82.6378C445.418 82.188 446.086 81.5843 446.572 80.8267C447.057 80.0691 447.3 79.2109 447.3 78.2521V75.358C447.063 75.5118 446.737 75.6539 446.323 75.7841C445.921 75.9025 445.465 76.0149 444.956 76.1214C444.447 76.2161 443.938 76.3049 443.429 76.3878C442.92 76.4588 442.458 76.5239 442.044 76.5831C441.156 76.7133 440.381 76.9205 439.718 77.2045C439.055 77.4886 438.54 77.8733 438.173 78.3587C437.806 78.8321 437.623 79.424 437.623 80.1342C437.623 81.1641 437.996 81.9512 438.741 82.4957C439.499 83.0284 440.458 83.2947 441.618 83.2947ZM468.243 72.233V88H460.679V60.7273H467.887V65.5391H468.207C468.811 63.9529 469.823 62.6982 471.243 61.7749C472.664 60.8397 474.386 60.3722 476.41 60.3722C478.304 60.3722 479.955 60.7865 481.364 61.6151C482.773 62.4437 483.868 63.6274 484.649 65.1662C485.43 66.6932 485.821 68.5161 485.821 70.6349V88H478.257V71.9844C478.269 70.3153 477.842 69.0133 476.978 68.0781C476.114 67.1312 474.925 66.6577 473.409 66.6577C472.391 66.6577 471.492 66.8767 470.711 67.3146C469.941 67.7526 469.337 68.3918 468.9 69.2322C468.473 70.0608 468.254 71.0611 468.243 72.233ZM504.105 88.5327C501.311 88.5327 498.908 87.9408 496.896 86.7571C494.895 85.5616 493.356 83.9044 492.279 81.7855C491.214 79.6667 490.681 77.2282 490.681 74.4702C490.681 71.6766 491.22 69.2263 492.297 67.1193C493.386 65.0005 494.931 63.3492 496.931 62.1655C498.932 60.9699 501.311 60.3722 504.069 60.3722C506.448 60.3722 508.532 60.8042 510.319 61.6683C512.106 62.5324 513.521 63.7457 514.563 65.3082C515.604 66.8707 516.178 68.7055 516.285 70.8125H509.147C508.946 69.4512 508.413 68.3563 507.549 67.5277C506.697 66.6873 505.578 66.267 504.193 66.267C503.021 66.267 501.998 66.5866 501.122 67.2259C500.258 67.8532 499.583 68.7706 499.097 69.978C498.612 71.1854 498.369 72.6473 498.369 74.3636C498.369 76.1037 498.606 77.5833 499.08 78.8026C499.565 80.0218 500.246 80.951 501.122 81.5902C501.998 82.2294 503.021 82.549 504.193 82.549C505.057 82.549 505.833 82.3714 506.519 82.0163C507.218 81.6612 507.792 81.1463 508.242 80.4716C508.703 79.785 509.005 78.9624 509.147 78.0036H516.285C516.167 80.0869 515.598 81.9216 514.58 83.5078C513.574 85.0821 512.183 86.3132 510.408 87.201C508.632 88.0888 506.531 88.5327 504.105 88.5327ZM521.128 88V60.7273H528.692V88H521.128ZM524.928 57.2116C523.803 57.2116 522.838 56.8388 522.033 56.093C521.24 55.3355 520.844 54.4299 520.844 53.3764C520.844 52.3348 521.24 51.4411 522.033 50.6953C522.838 49.9377 523.803 49.5589 524.928 49.5589C526.052 49.5589 527.011 49.9377 527.804 50.6953C528.609 51.4411 529.011 52.3348 529.011 53.3764C529.011 54.4299 528.609 55.3355 527.804 56.093C527.011 56.8388 526.052 57.2116 524.928 57.2116ZM542.528 88.5149C540.788 88.5149 539.237 88.2131 537.876 87.6094C536.515 86.9938 535.437 86.0883 534.644 84.8928C533.863 83.6854 533.472 82.1821 533.472 80.3828C533.472 78.8677 533.751 77.5952 534.307 76.5653C534.863 75.5355 535.621 74.7069 536.58 74.0795C537.539 73.4522 538.628 72.9787 539.847 72.6591C541.078 72.3395 542.368 72.1146 543.718 71.9844C545.304 71.8187 546.582 71.6648 547.553 71.5227C548.523 71.3688 549.228 71.1439 549.666 70.848C550.104 70.5521 550.323 70.1141 550.323 69.5341V69.4276C550.323 68.303 549.968 67.433 549.257 66.8175C548.559 66.2019 547.565 65.8942 546.274 65.8942C544.913 65.8942 543.83 66.196 543.025 66.7997C542.22 67.3916 541.687 68.1373 541.427 69.0369L534.431 68.4688C534.786 66.8116 535.485 65.3793 536.526 64.1719C537.568 62.9527 538.912 62.0175 540.557 61.3665C542.214 60.7036 544.132 60.3722 546.31 60.3722C547.825 60.3722 549.275 60.5497 550.66 60.9048C552.057 61.2599 553.294 61.8104 554.371 62.5561C555.46 63.3018 556.318 64.2607 556.945 65.4325C557.573 66.5926 557.887 67.9834 557.887 69.6051V88H550.713V84.218H550.5C550.062 85.0703 549.476 85.822 548.742 86.473C548.008 87.1122 547.127 87.6153 546.097 87.9822C545.067 88.3374 543.877 88.5149 542.528 88.5149ZM544.694 83.2947C545.807 83.2947 546.789 83.0758 547.642 82.6378C548.494 82.188 549.163 81.5843 549.648 80.8267C550.133 80.0691 550.376 79.2109 550.376 78.2521V75.358C550.139 75.5118 549.814 75.6539 549.399 75.7841C548.997 75.9025 548.541 76.0149 548.032 76.1214C547.523 76.2161 547.014 76.3049 546.505 76.3878C545.996 76.4588 545.535 76.5239 545.12 76.5831C544.232 76.7133 543.457 76.9205 542.794 77.2045C542.131 77.4886 541.616 77.8733 541.249 78.3587C540.883 78.8321 540.699 79.424 540.699 80.1342C540.699 81.1641 541.072 81.9512 541.818 82.4957C542.575 83.0284 543.534 83.2947 544.694 83.2947ZM571.319 51.6364V88H563.755V51.6364H571.319ZM599 88.4439C596.928 88.4439 595.052 87.9112 593.371 86.8459C591.702 85.7687 590.376 84.1884 589.394 82.1051C588.423 80.0099 587.938 77.4413 587.938 74.3991C587.938 71.2741 588.441 68.6759 589.447 66.6044C590.453 64.5211 591.791 62.9645 593.46 61.9347C595.141 60.893 596.982 60.3722 598.982 60.3722C600.509 60.3722 601.782 60.6326 602.8 61.1534C603.829 61.6624 604.658 62.3016 605.285 63.071C605.925 63.8286 606.41 64.5743 606.741 65.3082H606.972V51.6364H614.518V88H607.061V83.6321H606.741C606.386 84.3897 605.883 85.1413 605.232 85.8871C604.593 86.621 603.758 87.2306 602.729 87.7159C601.711 88.2012 600.468 88.4439 599 88.4439ZM601.397 82.4247C602.616 82.4247 603.646 82.0933 604.486 81.4304C605.339 80.7557 605.99 79.8146 606.439 78.6072C606.901 77.3999 607.132 75.9853 607.132 74.3636C607.132 72.742 606.907 71.3333 606.457 70.1378C606.007 68.9422 605.356 68.0189 604.504 67.3679C603.652 66.7169 602.616 66.3913 601.397 66.3913C600.154 66.3913 599.106 66.7287 598.254 67.4034C597.402 68.0781 596.757 69.0133 596.319 70.2088C595.881 71.4044 595.662 72.7893 595.662 74.3636C595.662 75.9498 595.881 77.3525 596.319 78.5717C596.769 79.7791 597.414 80.7261 598.254 81.4126C599.106 82.0874 600.154 82.4247 601.397 82.4247ZM628.514 88.5149C626.774 88.5149 625.223 88.2131 623.862 87.6094C622.501 86.9938 621.424 86.0883 620.631 84.8928C619.849 83.6854 619.459 82.1821 619.459 80.3828C619.459 78.8677 619.737 77.5952 620.293 76.5653C620.85 75.5355 621.607 74.7069 622.566 74.0795C623.525 73.4522 624.614 72.9787 625.833 72.6591C627.064 72.3395 628.354 72.1146 629.704 71.9844C631.29 71.8187 632.568 71.6648 633.539 71.5227C634.51 71.3688 635.214 71.1439 635.652 70.848C636.09 70.5521 636.309 70.1141 636.309 69.5341V69.4276C636.309 68.303 635.954 67.433 635.244 66.8175C634.545 66.2019 633.551 65.8942 632.261 65.8942C630.899 65.8942 629.816 66.196 629.011 66.7997C628.206 67.3916 627.674 68.1373 627.413 69.0369L620.418 68.4688C620.773 66.8116 621.471 65.3793 622.513 64.1719C623.554 62.9527 624.898 62.0175 626.543 61.3665C628.201 60.7036 630.118 60.3722 632.296 60.3722C633.811 60.3722 635.261 60.5497 636.646 60.9048C638.043 61.2599 639.28 61.8104 640.357 62.5561C641.446 63.3018 642.304 64.2607 642.932 65.4325C643.559 66.5926 643.873 67.9834 643.873 69.6051V88H636.7V84.218H636.487C636.049 85.0703 635.463 85.822 634.729 86.473C633.995 87.1122 633.113 87.6153 632.083 87.9822C631.053 88.3374 629.864 88.5149 628.514 88.5149ZM630.68 83.2947C631.793 83.2947 632.776 83.0758 633.628 82.6378C634.48 82.188 635.149 81.5843 635.634 80.8267C636.12 80.0691 636.362 79.2109 636.362 78.2521V75.358C636.125 75.5118 635.8 75.6539 635.386 75.7841C634.983 75.9025 634.527 76.0149 634.018 76.1214C633.509 76.2161 633 76.3049 632.491 76.3878C631.982 76.4588 631.521 76.5239 631.107 76.5831C630.219 76.7133 629.443 76.9205 628.781 77.2045C628.118 77.4886 627.603 77.8733 627.236 78.3587C626.869 78.8321 626.685 79.424 626.685 80.1342C626.685 81.1641 627.058 81.9512 627.804 82.4957C628.562 83.0284 629.52 83.2947 630.68 83.2947ZM664.248 60.7273V66.4091H647.824V60.7273H664.248ZM651.552 54.1932H659.116V79.6193C659.116 80.3177 659.223 80.8622 659.436 81.2528C659.649 81.6316 659.945 81.898 660.324 82.0518C660.714 82.2057 661.164 82.2827 661.673 82.2827C662.028 82.2827 662.383 82.2531 662.738 82.1939C663.093 82.1229 663.366 82.0696 663.555 82.0341L664.745 87.6626C664.366 87.781 663.833 87.9171 663.147 88.071C662.46 88.2367 661.626 88.3374 660.643 88.3729C658.82 88.4439 657.222 88.2012 655.849 87.6449C654.488 87.0885 653.428 86.2244 652.671 85.0526C651.913 83.8807 651.54 82.401 651.552 80.6136V54.1932ZM676.952 88.5149C675.212 88.5149 673.661 88.2131 672.3 87.6094C670.938 86.9938 669.861 86.0883 669.068 84.8928C668.287 83.6854 667.896 82.1821 667.896 80.3828C667.896 78.8677 668.174 77.5952 668.731 76.5653C669.287 75.5355 670.045 74.7069 671.004 74.0795C671.962 73.4522 673.051 72.9787 674.271 72.6591C675.502 72.3395 676.792 72.1146 678.141 71.9844C679.728 71.8187 681.006 71.6648 681.977 71.5227C682.947 71.3688 683.652 71.1439 684.089 70.848C684.527 70.5521 684.746 70.1141 684.746 69.5341V69.4276C684.746 68.303 684.391 67.433 683.681 66.8175C682.983 66.2019 681.988 65.8942 680.698 65.8942C679.337 65.8942 678.254 66.196 677.449 66.7997C676.644 67.3916 676.111 68.1373 675.851 69.0369L668.855 68.4688C669.21 66.8116 669.909 65.3793 670.95 64.1719C671.992 62.9527 673.335 62.0175 674.981 61.3665C676.638 60.7036 678.556 60.3722 680.734 60.3722C682.249 60.3722 683.699 60.5497 685.084 60.9048C686.481 61.2599 687.718 61.8104 688.795 62.5561C689.884 63.3018 690.742 64.2607 691.369 65.4325C691.997 66.5926 692.31 67.9834 692.31 69.6051V88H685.137V84.218H684.924C684.486 85.0703 683.9 85.822 683.166 86.473C682.432 87.1122 681.55 87.6153 680.521 87.9822C679.491 88.3374 678.301 88.5149 676.952 88.5149ZM679.118 83.2947C680.231 83.2947 681.213 83.0758 682.065 82.6378C682.918 82.188 683.586 81.5843 684.072 80.8267C684.557 80.0691 684.8 79.2109 684.8 78.2521V75.358C684.563 75.5118 684.237 75.6539 683.823 75.7841C683.421 75.9025 682.965 76.0149 682.456 76.1214C681.947 76.2161 681.438 76.3049 680.929 76.3878C680.42 76.4588 679.958 76.5239 679.544 76.5831C678.656 76.7133 677.881 76.9205 677.218 77.2045C676.555 77.4886 676.04 77.8733 675.673 78.3587C675.306 78.8321 675.123 79.424 675.123 80.1342C675.123 81.1641 675.496 81.9512 676.241 82.4957C676.999 83.0284 677.958 83.2947 679.118 83.2947Z" fill="white"/>
<path d="M297.972 149.515C296.232 149.515 294.681 149.213 293.32 148.609C291.959 147.994 290.882 147.088 290.089 145.893C289.307 144.685 288.917 143.182 288.917 141.383C288.917 139.868 289.195 138.595 289.751 137.565C290.308 136.536 291.065 135.707 292.024 135.08C292.983 134.452 294.072 133.979 295.291 133.659C296.522 133.339 297.812 133.115 299.162 132.984C300.748 132.819 302.026 132.665 302.997 132.523C303.968 132.369 304.672 132.144 305.11 131.848C305.548 131.552 305.767 131.114 305.767 130.534V130.428C305.767 129.303 305.412 128.433 304.702 127.817C304.003 127.202 303.009 126.894 301.719 126.894C300.357 126.894 299.274 127.196 298.469 127.8C297.664 128.392 297.132 129.137 296.871 130.037L289.876 129.469C290.231 127.812 290.929 126.379 291.971 125.172C293.012 123.953 294.356 123.018 296.001 122.366C297.659 121.704 299.576 121.372 301.754 121.372C303.269 121.372 304.719 121.55 306.104 121.905C307.501 122.26 308.738 122.81 309.815 123.556C310.904 124.302 311.762 125.261 312.39 126.433C313.017 127.593 313.331 128.983 313.331 130.605V149H306.158V145.218H305.945C305.507 146.07 304.921 146.822 304.187 147.473C303.453 148.112 302.571 148.615 301.541 148.982C300.511 149.337 299.322 149.515 297.972 149.515ZM300.138 144.295C301.251 144.295 302.234 144.076 303.086 143.638C303.938 143.188 304.607 142.584 305.092 141.827C305.578 141.069 305.82 140.211 305.82 139.252V136.358C305.583 136.512 305.258 136.654 304.844 136.784C304.441 136.902 303.985 137.015 303.476 137.121C302.967 137.216 302.458 137.305 301.949 137.388C301.44 137.459 300.979 137.524 300.565 137.583C299.677 137.713 298.901 137.92 298.239 138.205C297.576 138.489 297.061 138.873 296.694 139.359C296.327 139.832 296.143 140.424 296.143 141.134C296.143 142.164 296.516 142.951 297.262 143.496C298.02 144.028 298.978 144.295 300.138 144.295ZM331.522 149.533C328.728 149.533 326.325 148.941 324.313 147.757C322.312 146.562 320.773 144.904 319.696 142.786C318.631 140.667 318.098 138.228 318.098 135.47C318.098 132.677 318.637 130.226 319.714 128.119C320.803 126 322.348 124.349 324.348 123.165C326.349 121.97 328.728 121.372 331.486 121.372C333.865 121.372 335.949 121.804 337.736 122.668C339.523 123.532 340.938 124.746 341.98 126.308C343.021 127.871 343.595 129.705 343.702 131.812H336.564C336.363 130.451 335.83 129.356 334.966 128.528C334.114 127.687 332.995 127.267 331.61 127.267C330.438 127.267 329.415 127.587 328.539 128.226C327.675 128.853 327 129.771 326.514 130.978C326.029 132.185 325.786 133.647 325.786 135.364C325.786 137.104 326.023 138.583 326.497 139.803C326.982 141.022 327.663 141.951 328.539 142.59C329.415 143.229 330.438 143.549 331.61 143.549C332.474 143.549 333.25 143.371 333.936 143.016C334.635 142.661 335.209 142.146 335.659 141.472C336.12 140.785 336.422 139.962 336.564 139.004H343.702C343.584 141.087 343.015 142.922 341.997 144.508C340.991 146.082 339.6 147.313 337.825 148.201C336.049 149.089 333.948 149.533 331.522 149.533ZM360.867 149.533C358.074 149.533 355.671 148.941 353.658 147.757C351.658 146.562 350.119 144.904 349.042 142.786C347.977 140.667 347.444 138.228 347.444 135.47C347.444 132.677 347.983 130.226 349.06 128.119C350.149 126 351.694 124.349 353.694 123.165C355.694 121.97 358.074 121.372 360.832 121.372C363.211 121.372 365.294 121.804 367.082 122.668C368.869 123.532 370.284 124.746 371.325 126.308C372.367 127.871 372.941 129.705 373.048 131.812H365.91C365.709 130.451 365.176 129.356 364.312 128.528C363.46 127.687 362.341 127.267 360.956 127.267C359.784 127.267 358.76 127.587 357.884 128.226C357.02 128.853 356.345 129.771 355.86 130.978C355.375 132.185 355.132 133.647 355.132 135.364C355.132 137.104 355.369 138.583 355.842 139.803C356.328 141.022 357.008 141.951 357.884 142.59C358.76 143.229 359.784 143.549 360.956 143.549C361.82 143.549 362.595 143.371 363.282 143.016C363.98 142.661 364.555 142.146 365.004 141.472C365.466 140.785 365.768 139.962 365.91 139.004H373.048C372.929 141.087 372.361 142.922 371.343 144.508C370.337 146.082 368.946 147.313 367.171 148.201C365.395 149.089 363.294 149.533 360.867 149.533ZM390.32 149.533C387.514 149.533 385.099 148.964 383.075 147.828C381.063 146.68 379.512 145.058 378.423 142.963C377.334 140.856 376.79 138.364 376.79 135.488C376.79 132.683 377.334 130.22 378.423 128.102C379.512 125.983 381.045 124.331 383.022 123.148C385.011 121.964 387.342 121.372 390.018 121.372C391.817 121.372 393.492 121.662 395.043 122.242C396.605 122.81 397.966 123.669 399.126 124.817C400.298 125.965 401.21 127.409 401.861 129.149C402.512 130.877 402.837 132.902 402.837 135.222V137.299H379.808V132.612H395.717C395.717 131.522 395.48 130.558 395.007 129.717C394.534 128.877 393.877 128.22 393.036 127.746C392.208 127.261 391.243 127.018 390.142 127.018C388.994 127.018 387.976 127.285 387.088 127.817C386.212 128.338 385.525 129.043 385.028 129.93C384.531 130.806 384.277 131.783 384.265 132.86V137.317C384.265 138.666 384.513 139.832 385.011 140.815C385.52 141.797 386.236 142.555 387.159 143.087C388.082 143.62 389.177 143.886 390.444 143.886C391.284 143.886 392.054 143.768 392.752 143.531C393.45 143.295 394.048 142.939 394.545 142.466C395.043 141.992 395.421 141.412 395.682 140.726L402.677 141.188C402.322 142.868 401.594 144.336 400.494 145.591C399.405 146.834 397.996 147.804 396.268 148.503C394.551 149.189 392.569 149.533 390.32 149.533ZM430.465 129.504L423.54 129.93C423.422 129.339 423.168 128.806 422.777 128.332C422.386 127.847 421.871 127.462 421.232 127.178C420.605 126.882 419.853 126.734 418.977 126.734C417.805 126.734 416.817 126.983 416.012 127.48C415.207 127.965 414.805 128.616 414.805 129.433C414.805 130.084 415.065 130.635 415.586 131.085C416.107 131.534 417 131.895 418.267 132.168L423.203 133.162C425.855 133.706 427.831 134.582 429.133 135.79C430.436 136.997 431.087 138.583 431.087 140.548C431.087 142.336 430.56 143.904 429.506 145.254C428.465 146.603 427.032 147.656 425.209 148.414C423.398 149.16 421.309 149.533 418.942 149.533C415.331 149.533 412.455 148.781 410.312 147.278C408.182 145.763 406.933 143.703 406.566 141.099L414.006 140.708C414.23 141.809 414.775 142.649 415.639 143.229C416.503 143.798 417.61 144.082 418.959 144.082C420.285 144.082 421.351 143.827 422.155 143.318C422.972 142.797 423.387 142.129 423.398 141.312C423.387 140.625 423.097 140.063 422.528 139.625C421.96 139.175 421.084 138.832 419.9 138.595L415.177 137.654C412.514 137.121 410.531 136.198 409.229 134.884C407.939 133.57 407.294 131.895 407.294 129.859C407.294 128.107 407.767 126.598 408.714 125.332C409.673 124.065 411.017 123.089 412.745 122.402C414.485 121.715 416.521 121.372 418.853 121.372C422.297 121.372 425.008 122.1 426.985 123.556C428.974 125.012 430.134 126.995 430.465 129.504ZM458.541 129.504L451.617 129.93C451.498 129.339 451.244 128.806 450.853 128.332C450.462 127.847 449.948 127.462 449.308 127.178C448.681 126.882 447.929 126.734 447.053 126.734C445.881 126.734 444.893 126.983 444.088 127.48C443.283 127.965 442.881 128.616 442.881 129.433C442.881 130.084 443.141 130.635 443.662 131.085C444.183 131.534 445.077 131.895 446.343 132.168L451.279 133.162C453.931 133.706 455.908 134.582 457.21 135.79C458.512 136.997 459.163 138.583 459.163 140.548C459.163 142.336 458.636 143.904 457.582 145.254C456.541 146.603 455.109 147.656 453.286 148.414C451.475 149.16 449.385 149.533 447.018 149.533C443.408 149.533 440.531 148.781 438.389 147.278C436.258 145.763 435.009 143.703 434.642 141.099L442.082 140.708C442.307 141.809 442.851 142.649 443.715 143.229C444.579 143.798 445.686 144.082 447.036 144.082C448.361 144.082 449.427 143.827 450.232 143.318C451.048 142.797 451.463 142.129 451.475 141.312C451.463 140.625 451.173 140.063 450.604 139.625C450.036 139.175 449.16 138.832 447.977 138.595L443.254 137.654C440.59 137.121 438.608 136.198 437.305 134.884C436.015 133.57 435.37 131.895 435.37 129.859C435.37 128.107 435.844 126.598 436.791 125.332C437.749 124.065 439.093 123.089 440.821 122.402C442.561 121.715 444.597 121.372 446.929 121.372C450.374 121.372 453.084 122.1 455.061 123.556C457.05 125.012 458.21 126.995 458.541 129.504ZM463.926 149V121.727H471.49V149H463.926ZM467.725 118.212C466.601 118.212 465.636 117.839 464.831 117.093C464.038 116.335 463.642 115.43 463.642 114.376C463.642 113.335 464.038 112.441 464.831 111.695C465.636 110.938 466.601 110.559 467.725 110.559C468.85 110.559 469.809 110.938 470.602 111.695C471.407 112.441 471.809 113.335 471.809 114.376C471.809 115.43 471.407 116.335 470.602 117.093C469.809 117.839 468.85 118.212 467.725 118.212ZM477.691 149V112.636H485.255V126.308H485.486C485.817 125.574 486.296 124.829 486.924 124.071C487.563 123.302 488.392 122.662 489.41 122.153C490.439 121.633 491.718 121.372 493.245 121.372C495.233 121.372 497.068 121.893 498.749 122.935C500.43 123.964 501.773 125.521 502.78 127.604C503.786 129.676 504.289 132.274 504.289 135.399C504.289 138.441 503.798 141.01 502.815 143.105C501.844 145.188 500.519 146.769 498.838 147.846C497.169 148.911 495.299 149.444 493.227 149.444C491.759 149.444 490.51 149.201 489.481 148.716C488.463 148.231 487.628 147.621 486.977 146.887C486.326 146.141 485.829 145.39 485.486 144.632H485.148V149H477.691ZM485.095 135.364C485.095 136.985 485.32 138.4 485.77 139.607C486.219 140.815 486.87 141.756 487.723 142.43C488.575 143.093 489.611 143.425 490.83 143.425C492.061 143.425 493.103 143.087 493.955 142.413C494.807 141.726 495.452 140.779 495.89 139.572C496.34 138.353 496.565 136.95 496.565 135.364C496.565 133.789 496.346 132.404 495.908 131.209C495.47 130.013 494.825 129.078 493.973 128.403C493.12 127.729 492.073 127.391 490.83 127.391C489.599 127.391 488.557 127.717 487.705 128.368C486.865 129.019 486.219 129.942 485.77 131.138C485.32 132.333 485.095 133.742 485.095 135.364ZM516.9 112.636V149H509.336V112.636H516.9ZM535.388 149.533C532.582 149.533 530.168 148.964 528.144 147.828C526.131 146.68 524.581 145.058 523.492 142.963C522.403 140.856 521.858 138.364 521.858 135.488C521.858 132.683 522.403 130.22 523.492 128.102C524.581 125.983 526.113 124.331 528.09 123.148C530.079 121.964 532.411 121.372 535.086 121.372C536.885 121.372 538.56 121.662 540.111 122.242C541.673 122.81 543.035 123.669 544.195 124.817C545.367 125.965 546.278 127.409 546.929 129.149C547.58 130.877 547.906 132.902 547.906 135.222V137.299H524.877V132.612H540.786C540.786 131.522 540.549 130.558 540.075 129.717C539.602 128.877 538.945 128.22 538.104 127.746C537.276 127.261 536.311 127.018 535.21 127.018C534.062 127.018 533.044 127.285 532.156 127.817C531.28 128.338 530.594 129.043 530.097 129.93C529.6 130.806 529.345 131.783 529.333 132.86V137.317C529.333 138.666 529.582 139.832 530.079 140.815C530.588 141.797 531.304 142.555 532.227 143.087C533.151 143.62 534.246 143.886 535.512 143.886C536.353 143.886 537.122 143.768 537.82 143.531C538.519 143.295 539.117 142.939 539.614 142.466C540.111 141.992 540.49 141.412 540.75 140.726L547.746 141.188C547.391 142.868 546.663 144.336 545.562 145.591C544.473 146.834 543.064 147.804 541.336 148.503C539.62 149.189 537.637 149.533 535.388 149.533Z" fill="url(#paint0_linear_501_116)"/>
<path d="M166.632 189.818V200H165.439L159.891 192.006H159.791V200H158.558V189.818H159.751L165.32 197.832H165.419V189.818H166.632ZM172.142 200.159C171.406 200.159 170.771 199.997 170.238 199.672C169.707 199.344 169.298 198.886 169.01 198.3C168.725 197.71 168.582 197.024 168.582 196.241C168.582 195.459 168.725 194.77 169.01 194.173C169.298 193.573 169.699 193.106 170.213 192.771C170.73 192.433 171.333 192.264 172.022 192.264C172.42 192.264 172.813 192.33 173.201 192.463C173.589 192.596 173.941 192.811 174.26 193.109C174.578 193.404 174.831 193.795 175.02 194.283C175.209 194.77 175.304 195.37 175.304 196.082V196.58H169.417V195.565H174.111C174.111 195.134 174.024 194.75 173.852 194.412C173.683 194.074 173.441 193.807 173.126 193.612C172.815 193.416 172.447 193.318 172.022 193.318C171.555 193.318 171.151 193.434 170.809 193.666C170.471 193.895 170.211 194.193 170.029 194.561C169.847 194.929 169.755 195.323 169.755 195.744V196.42C169.755 196.997 169.855 197.486 170.054 197.887C170.256 198.285 170.536 198.588 170.894 198.797C171.252 199.002 171.668 199.105 172.142 199.105C172.45 199.105 172.728 199.062 172.977 198.976C173.229 198.886 173.446 198.754 173.628 198.578C173.811 198.399 173.951 198.177 174.051 197.912L175.184 198.23C175.065 198.615 174.865 198.953 174.583 199.244C174.301 199.533 173.953 199.758 173.539 199.92C173.124 200.08 172.659 200.159 172.142 200.159ZM178.819 200L176.492 192.364H177.725L179.375 198.21H179.455L181.086 192.364H182.339L183.949 198.19H184.029L185.679 192.364H186.912L184.586 200H183.432L181.762 194.134H181.642L179.972 200H178.819ZM193.873 194.074L192.819 194.372C192.752 194.196 192.655 194.026 192.525 193.86C192.399 193.691 192.227 193.552 192.008 193.442C191.79 193.333 191.509 193.278 191.168 193.278C190.701 193.278 190.311 193.386 190 193.602C189.691 193.814 189.537 194.084 189.537 194.412C189.537 194.704 189.643 194.934 189.856 195.103C190.068 195.272 190.399 195.413 190.85 195.526L191.983 195.804C192.666 195.97 193.175 196.223 193.51 196.565C193.844 196.903 194.012 197.339 194.012 197.872C194.012 198.31 193.886 198.701 193.634 199.045C193.385 199.39 193.037 199.662 192.59 199.861C192.142 200.06 191.622 200.159 191.029 200.159C190.25 200.159 189.605 199.99 189.095 199.652C188.584 199.314 188.261 198.82 188.125 198.17L189.239 197.892C189.345 198.303 189.546 198.611 189.841 198.817C190.139 199.022 190.528 199.125 191.009 199.125C191.556 199.125 191.99 199.009 192.312 198.777C192.636 198.542 192.799 198.26 192.799 197.932C192.799 197.667 192.706 197.445 192.52 197.266C192.335 197.083 192.05 196.947 191.665 196.858L190.392 196.56C189.693 196.394 189.179 196.137 188.851 195.789C188.526 195.438 188.364 194.999 188.364 194.472C188.364 194.041 188.485 193.66 188.727 193.328C188.972 192.997 189.305 192.737 189.726 192.548C190.151 192.359 190.631 192.264 191.168 192.264C191.924 192.264 192.517 192.43 192.948 192.761C193.382 193.093 193.69 193.53 193.873 194.074ZM197.528 198.608L197.448 199.145C197.392 199.523 197.306 199.927 197.19 200.358C197.077 200.789 196.96 201.195 196.837 201.576C196.714 201.957 196.613 202.26 196.534 202.486H195.639C195.682 202.274 195.738 201.994 195.808 201.646C195.877 201.298 195.947 200.908 196.017 200.477C196.09 200.05 196.149 199.612 196.196 199.165L196.255 198.608H197.528ZM206.96 192.364V193.358H203.003V192.364H206.96ZM204.156 190.534H205.33V197.812C205.33 198.144 205.378 198.393 205.474 198.558C205.573 198.721 205.699 198.83 205.852 198.886C206.007 198.939 206.171 198.966 206.344 198.966C206.473 198.966 206.579 198.959 206.662 198.946C206.745 198.929 206.811 198.916 206.861 198.906L207.1 199.96C207.02 199.99 206.909 200.02 206.766 200.05C206.624 200.083 206.443 200.099 206.225 200.099C205.893 200.099 205.568 200.028 205.25 199.886C204.935 199.743 204.673 199.526 204.465 199.234C204.259 198.943 204.156 198.575 204.156 198.131V190.534ZM208.725 200V192.364H209.899V200H208.725ZM209.322 191.091C209.093 191.091 208.896 191.013 208.73 190.857C208.568 190.701 208.487 190.514 208.487 190.295C208.487 190.077 208.568 189.889 208.73 189.734C208.896 189.578 209.093 189.5 209.322 189.5C209.551 189.5 209.746 189.578 209.908 189.734C210.074 189.889 210.157 190.077 210.157 190.295C210.157 190.514 210.074 190.701 209.908 190.857C209.746 191.013 209.551 191.091 209.322 191.091ZM215.15 200.159C214.434 200.159 213.817 199.99 213.3 199.652C212.783 199.314 212.386 198.848 212.107 198.255C211.829 197.662 211.69 196.984 211.69 196.222C211.69 195.446 211.832 194.762 212.117 194.168C212.405 193.572 212.806 193.106 213.32 192.771C213.837 192.433 214.44 192.264 215.13 192.264C215.667 192.264 216.151 192.364 216.582 192.562C217.012 192.761 217.365 193.04 217.641 193.398C217.916 193.756 218.086 194.173 218.153 194.651H216.979C216.89 194.303 216.691 193.994 216.383 193.726C216.078 193.454 215.667 193.318 215.15 193.318C214.692 193.318 214.291 193.437 213.947 193.676C213.605 193.911 213.338 194.245 213.146 194.675C212.957 195.103 212.863 195.605 212.863 196.182C212.863 196.772 212.956 197.286 213.141 197.723C213.33 198.161 213.595 198.5 213.937 198.742C214.281 198.984 214.686 199.105 215.15 199.105C215.455 199.105 215.731 199.052 215.98 198.946C216.229 198.84 216.439 198.688 216.611 198.489C216.784 198.29 216.906 198.051 216.979 197.773H218.153C218.086 198.223 217.922 198.629 217.66 198.991C217.402 199.349 217.059 199.634 216.631 199.846C216.207 200.055 215.713 200.159 215.15 200.159ZM220.962 197.216L220.942 195.764H221.18L224.521 192.364H225.973L222.413 195.963H222.314L220.962 197.216ZM219.868 200V189.818H221.041V200H219.868ZM224.72 200L221.737 196.222L222.572 195.406L226.212 200H224.72ZM230.37 200.159C229.634 200.159 229 199.997 228.466 199.672C227.936 199.344 227.527 198.886 227.238 198.3C226.953 197.71 226.811 197.024 226.811 196.241C226.811 195.459 226.953 194.77 227.238 194.173C227.527 193.573 227.928 193.106 228.441 192.771C228.958 192.433 229.562 192.264 230.251 192.264C230.649 192.264 231.041 192.33 231.429 192.463C231.817 192.596 232.17 192.811 232.488 193.109C232.806 193.404 233.06 193.795 233.249 194.283C233.438 194.77 233.532 195.37 233.532 196.082V196.58H227.646V195.565H232.339C232.339 195.134 232.253 194.75 232.081 194.412C231.911 194.074 231.67 193.807 231.355 193.612C231.043 193.416 230.675 193.318 230.251 193.318C229.784 193.318 229.379 193.434 229.038 193.666C228.7 193.895 228.44 194.193 228.257 194.561C228.075 194.929 227.984 195.323 227.984 195.744V196.42C227.984 196.997 228.083 197.486 228.282 197.887C228.484 198.285 228.764 198.588 229.122 198.797C229.48 199.002 229.896 199.105 230.37 199.105C230.679 199.105 230.957 199.062 231.206 198.976C231.457 198.886 231.675 198.754 231.857 198.578C232.039 198.399 232.18 198.177 232.279 197.912L233.413 198.23C233.294 198.615 233.093 198.953 232.811 199.244C232.53 199.533 232.182 199.758 231.767 199.92C231.353 200.08 230.887 200.159 230.37 200.159ZM235.317 200V192.364H236.451V193.517H236.53C236.669 193.139 236.921 192.833 237.286 192.597C237.65 192.362 238.061 192.244 238.519 192.244C238.605 192.244 238.713 192.246 238.842 192.249C238.971 192.253 239.069 192.258 239.135 192.264V193.457C239.095 193.447 239.004 193.433 238.862 193.413C238.723 193.389 238.575 193.378 238.419 193.378C238.048 193.378 237.717 193.456 237.425 193.612C237.137 193.764 236.908 193.976 236.739 194.248C236.573 194.516 236.49 194.823 236.49 195.168V200H235.317ZM245.935 194.074L244.881 194.372C244.815 194.196 244.717 194.026 244.588 193.86C244.462 193.691 244.29 193.552 244.071 193.442C243.852 193.333 243.572 193.278 243.231 193.278C242.763 193.278 242.374 193.386 242.062 193.602C241.754 193.814 241.6 194.084 241.6 194.412C241.6 194.704 241.706 194.934 241.918 195.103C242.13 195.272 242.462 195.413 242.912 195.526L244.046 195.804C244.729 195.97 245.237 196.223 245.572 196.565C245.907 196.903 246.074 197.339 246.074 197.872C246.074 198.31 245.948 198.701 245.696 199.045C245.448 199.39 245.1 199.662 244.652 199.861C244.205 200.06 243.685 200.159 243.091 200.159C242.312 200.159 241.668 199.99 241.157 199.652C240.647 199.314 240.324 198.82 240.188 198.17L241.302 197.892C241.408 198.303 241.608 198.611 241.903 198.817C242.201 199.022 242.591 199.125 243.071 199.125C243.618 199.125 244.053 199.009 244.374 198.777C244.699 198.542 244.861 198.26 244.861 197.932C244.861 197.667 244.768 197.445 244.583 197.266C244.397 197.083 244.112 196.947 243.728 196.858L242.455 196.56C241.756 196.394 241.242 196.137 240.914 195.789C240.589 195.438 240.427 194.999 240.427 194.472C240.427 194.041 240.548 193.66 240.79 193.328C241.035 192.997 241.368 192.737 241.789 192.548C242.213 192.359 242.694 192.264 243.231 192.264C243.986 192.264 244.58 192.43 245.01 192.761C245.445 193.093 245.753 193.53 245.935 194.074ZM251.778 200V192.364H252.951V200H251.778ZM252.375 191.091C252.146 191.091 251.949 191.013 251.783 190.857C251.621 190.701 251.539 190.514 251.539 190.295C251.539 190.077 251.621 189.889 251.783 189.734C251.949 189.578 252.146 189.5 252.375 189.5C252.603 189.5 252.799 189.578 252.961 189.734C253.127 189.889 253.21 190.077 253.21 190.295C253.21 190.514 253.127 190.701 252.961 190.857C252.799 191.013 252.603 191.091 252.375 191.091ZM256.274 195.406V200H255.1V192.364H256.234V193.557H256.333C256.512 193.169 256.784 192.857 257.149 192.622C257.513 192.384 257.984 192.264 258.56 192.264C259.078 192.264 259.53 192.37 259.918 192.582C260.305 192.791 260.607 193.109 260.823 193.537C261.038 193.961 261.146 194.498 261.146 195.148V200H259.972V195.227C259.972 194.627 259.817 194.16 259.505 193.825C259.194 193.487 258.766 193.318 258.222 193.318C257.848 193.318 257.513 193.399 257.218 193.562C256.926 193.724 256.696 193.961 256.527 194.273C256.358 194.584 256.274 194.962 256.274 195.406ZM266.69 192.364V193.358H262.574V192.364H266.69ZM263.807 200V191.31C263.807 190.872 263.909 190.508 264.115 190.216C264.32 189.924 264.587 189.705 264.915 189.56C265.244 189.414 265.59 189.341 265.954 189.341C266.243 189.341 266.478 189.364 266.66 189.411C266.843 189.457 266.979 189.5 267.068 189.54L266.73 190.554C266.67 190.534 266.588 190.509 266.481 190.479C266.379 190.45 266.243 190.435 266.074 190.435C265.686 190.435 265.406 190.532 265.234 190.728C265.065 190.924 264.98 191.21 264.98 191.588V200H263.807ZM271.122 200.159C270.433 200.159 269.828 199.995 269.308 199.667C268.791 199.339 268.386 198.88 268.095 198.29C267.806 197.7 267.662 197.01 267.662 196.222C267.662 195.426 267.806 194.732 268.095 194.138C268.386 193.545 268.791 193.085 269.308 192.756C269.828 192.428 270.433 192.264 271.122 192.264C271.812 192.264 272.415 192.428 272.932 192.756C273.452 193.085 273.857 193.545 274.145 194.138C274.437 194.732 274.583 195.426 274.583 196.222C274.583 197.01 274.437 197.7 274.145 198.29C273.857 198.88 273.452 199.339 272.932 199.667C272.415 199.995 271.812 200.159 271.122 200.159ZM271.122 199.105C271.646 199.105 272.077 198.971 272.415 198.702C272.753 198.434 273.003 198.081 273.166 197.643C273.328 197.206 273.409 196.732 273.409 196.222C273.409 195.711 273.328 195.236 273.166 194.795C273.003 194.354 272.753 193.998 272.415 193.726C272.077 193.454 271.646 193.318 271.122 193.318C270.599 193.318 270.168 193.454 269.83 193.726C269.492 193.998 269.242 194.354 269.079 194.795C268.917 195.236 268.835 195.711 268.835 196.222C268.835 196.732 268.917 197.206 269.079 197.643C269.242 198.081 269.492 198.434 269.83 198.702C270.168 198.971 270.599 199.105 271.122 199.105ZM276.374 200V192.364H277.507V193.517H277.587C277.726 193.139 277.978 192.833 278.342 192.597C278.707 192.362 279.118 192.244 279.575 192.244C279.662 192.244 279.769 192.246 279.899 192.249C280.028 192.253 280.126 192.258 280.192 192.264V193.457C280.152 193.447 280.061 193.433 279.918 193.413C279.779 193.389 279.632 193.378 279.476 193.378C279.105 193.378 278.773 193.456 278.482 193.612C278.193 193.764 277.965 193.976 277.796 194.248C277.63 194.516 277.547 194.823 277.547 195.168V200H276.374ZM281.583 200V192.364H282.716V193.557H282.816C282.975 193.149 283.232 192.833 283.586 192.607C283.941 192.379 284.367 192.264 284.864 192.264C285.368 192.264 285.787 192.379 286.122 192.607C286.46 192.833 286.723 193.149 286.912 193.557H286.992C287.187 193.162 287.481 192.849 287.872 192.617C288.263 192.382 288.732 192.264 289.279 192.264C289.961 192.264 290.52 192.478 290.954 192.906C291.388 193.33 291.605 193.991 291.605 194.889V200H290.432V194.889C290.432 194.326 290.278 193.923 289.97 193.681C289.661 193.439 289.299 193.318 288.881 193.318C288.344 193.318 287.928 193.481 287.633 193.805C287.338 194.127 287.191 194.535 287.191 195.028V200H285.997V194.77C285.997 194.336 285.857 193.986 285.575 193.721C285.293 193.452 284.93 193.318 284.486 193.318C284.181 193.318 283.896 193.399 283.631 193.562C283.369 193.724 283.157 193.95 282.995 194.238C282.835 194.523 282.756 194.853 282.756 195.227V200H281.583ZM295.998 200.179C295.514 200.179 295.075 200.088 294.68 199.906C294.286 199.72 293.973 199.453 293.741 199.105C293.509 198.754 293.393 198.33 293.393 197.832C293.393 197.395 293.479 197.04 293.651 196.768C293.824 196.493 294.054 196.278 294.342 196.122C294.631 195.966 294.949 195.85 295.297 195.774C295.648 195.695 296.001 195.632 296.356 195.585C296.82 195.526 297.196 195.481 297.484 195.451C297.776 195.418 297.988 195.363 298.121 195.287C298.257 195.211 298.324 195.078 298.324 194.889V194.849C298.324 194.359 298.19 193.978 297.922 193.706C297.657 193.434 297.254 193.298 296.714 193.298C296.154 193.298 295.714 193.421 295.396 193.666C295.078 193.911 294.854 194.173 294.725 194.452L293.611 194.054C293.81 193.59 294.075 193.229 294.407 192.97C294.742 192.708 295.106 192.526 295.501 192.423C295.898 192.317 296.289 192.264 296.674 192.264C296.919 192.264 297.201 192.294 297.519 192.354C297.841 192.41 298.15 192.528 298.449 192.707C298.75 192.886 299.001 193.156 299.199 193.517C299.398 193.878 299.498 194.362 299.498 194.969V200H298.324V198.966H298.265C298.185 199.132 298.053 199.309 297.867 199.498C297.681 199.687 297.435 199.848 297.126 199.98C296.818 200.113 296.442 200.179 295.998 200.179ZM296.177 199.125C296.641 199.125 297.032 199.034 297.35 198.852C297.672 198.669 297.914 198.434 298.076 198.146C298.242 197.857 298.324 197.554 298.324 197.236V196.162C298.275 196.222 298.165 196.276 297.996 196.326C297.831 196.372 297.638 196.414 297.42 196.45C297.204 196.483 296.994 196.513 296.788 196.54C296.586 196.563 296.422 196.583 296.296 196.599C295.991 196.639 295.706 196.704 295.441 196.793C295.179 196.879 294.967 197.01 294.805 197.186C294.646 197.358 294.566 197.594 294.566 197.892C294.566 198.3 294.717 198.608 295.018 198.817C295.323 199.022 295.709 199.125 296.177 199.125ZM304.96 192.364V193.358H301.003V192.364H304.96ZM302.156 190.534H303.33V197.812C303.33 198.144 303.378 198.393 303.474 198.558C303.573 198.721 303.699 198.83 303.852 198.886C304.007 198.939 304.171 198.966 304.344 198.966C304.473 198.966 304.579 198.959 304.662 198.946C304.745 198.929 304.811 198.916 304.861 198.906L305.1 199.96C305.02 199.99 304.909 200.02 304.766 200.05C304.624 200.083 304.443 200.099 304.225 200.099C303.893 200.099 303.568 200.028 303.25 199.886C302.935 199.743 302.673 199.526 302.465 199.234C302.259 198.943 302.156 198.575 302.156 198.131V190.534ZM306.725 200V192.364H307.899V200H306.725ZM307.322 191.091C307.093 191.091 306.896 191.013 306.73 190.857C306.568 190.701 306.487 190.514 306.487 190.295C306.487 190.077 306.568 189.889 306.73 189.734C306.896 189.578 307.093 189.5 307.322 189.5C307.551 189.5 307.746 189.578 307.908 189.734C308.074 189.889 308.157 190.077 308.157 190.295C308.157 190.514 308.074 190.701 307.908 190.857C307.746 191.013 307.551 191.091 307.322 191.091ZM313.15 200.159C312.46 200.159 311.855 199.995 311.335 199.667C310.818 199.339 310.414 198.88 310.122 198.29C309.834 197.7 309.69 197.01 309.69 196.222C309.69 195.426 309.834 194.732 310.122 194.138C310.414 193.545 310.818 193.085 311.335 192.756C311.855 192.428 312.46 192.264 313.15 192.264C313.839 192.264 314.442 192.428 314.959 192.756C315.48 193.085 315.884 193.545 316.172 194.138C316.464 194.732 316.61 195.426 316.61 196.222C316.61 197.01 316.464 197.7 316.172 198.29C315.884 198.88 315.48 199.339 314.959 199.667C314.442 199.995 313.839 200.159 313.15 200.159ZM313.15 199.105C313.673 199.105 314.104 198.971 314.442 198.702C314.78 198.434 315.031 198.081 315.193 197.643C315.355 197.206 315.437 196.732 315.437 196.222C315.437 195.711 315.355 195.236 315.193 194.795C315.031 194.354 314.78 193.998 314.442 193.726C314.104 193.454 313.673 193.318 313.15 193.318C312.626 193.318 312.195 193.454 311.857 193.726C311.519 193.998 311.269 194.354 311.106 194.795C310.944 195.236 310.863 195.711 310.863 196.222C310.863 196.732 310.944 197.206 311.106 197.643C311.269 198.081 311.519 198.434 311.857 198.702C312.195 198.971 312.626 199.105 313.15 199.105ZM319.574 195.406V200H318.401V192.364H319.535V193.557H319.634C319.813 193.169 320.085 192.857 320.449 192.622C320.814 192.384 321.285 192.264 321.861 192.264C322.378 192.264 322.831 192.37 323.218 192.582C323.606 192.791 323.908 193.109 324.123 193.537C324.339 193.961 324.446 194.498 324.446 195.148V200H323.273V195.227C323.273 194.627 323.117 194.16 322.806 193.825C322.494 193.487 322.067 193.318 321.523 193.318C321.149 193.318 320.814 193.399 320.519 193.562C320.227 193.724 319.997 193.961 319.828 194.273C319.659 194.584 319.574 194.962 319.574 195.406ZM332 194.074L330.946 194.372C330.879 194.196 330.782 194.026 330.652 193.86C330.526 193.691 330.354 193.552 330.135 193.442C329.916 193.333 329.636 193.278 329.295 193.278C328.828 193.278 328.438 193.386 328.127 193.602C327.818 193.814 327.664 194.084 327.664 194.412C327.664 194.704 327.77 194.934 327.983 195.103C328.195 195.272 328.526 195.413 328.977 195.526L330.11 195.804C330.793 195.97 331.302 196.223 331.637 196.565C331.971 196.903 332.139 197.339 332.139 197.872C332.139 198.31 332.013 198.701 331.761 199.045C331.512 199.39 331.164 199.662 330.717 199.861C330.269 200.06 329.749 200.159 329.156 200.159C328.377 200.159 327.732 199.99 327.222 199.652C326.711 199.314 326.388 198.82 326.252 198.17L327.366 197.892C327.472 198.303 327.673 198.611 327.968 198.817C328.266 199.022 328.655 199.125 329.136 199.125C329.683 199.125 330.117 199.009 330.438 198.777C330.763 198.542 330.926 198.26 330.926 197.932C330.926 197.667 330.833 197.445 330.647 197.266C330.462 197.083 330.177 196.947 329.792 196.858L328.519 196.56C327.82 196.394 327.306 196.137 326.978 195.789C326.653 195.438 326.491 194.999 326.491 194.472C326.491 194.041 326.612 193.66 326.854 193.328C327.099 192.997 327.432 192.737 327.853 192.548C328.277 192.359 328.758 192.264 329.295 192.264C330.051 192.264 330.644 192.43 331.075 192.761C331.509 193.093 331.817 193.53 332 194.074ZM335.655 198.608L335.575 199.145C335.519 199.523 335.433 199.927 335.317 200.358C335.204 200.789 335.086 201.195 334.964 201.576C334.841 201.957 334.74 202.26 334.661 202.486H333.766C333.809 202.274 333.865 201.994 333.935 201.646C334.004 201.298 334.074 200.908 334.144 200.477C334.216 200.05 334.276 199.612 334.323 199.165L334.382 198.608H335.655ZM344.849 203.023C344.282 203.023 343.795 202.95 343.387 202.804C342.979 202.661 342.64 202.473 342.368 202.237C342.099 202.005 341.886 201.757 341.726 201.491L342.661 200.835C342.767 200.974 342.901 201.134 343.064 201.312C343.226 201.495 343.448 201.652 343.73 201.785C344.015 201.921 344.388 201.989 344.849 201.989C345.465 201.989 345.974 201.839 346.375 201.541C346.776 201.243 346.976 200.776 346.976 200.139V198.588H346.877C346.791 198.727 346.668 198.9 346.509 199.105C346.353 199.307 346.128 199.488 345.833 199.647C345.541 199.803 345.147 199.881 344.65 199.881C344.033 199.881 343.48 199.735 342.989 199.443C342.502 199.152 342.116 198.727 341.831 198.17C341.549 197.614 341.408 196.937 341.408 196.142C341.408 195.36 341.546 194.679 341.821 194.099C342.096 193.515 342.479 193.065 342.969 192.746C343.46 192.425 344.027 192.264 344.67 192.264C345.167 192.264 345.561 192.347 345.853 192.513C346.148 192.675 346.373 192.861 346.529 193.07C346.688 193.275 346.811 193.444 346.897 193.577H347.016V192.364H348.15V200.219C348.15 200.875 348.001 201.409 347.702 201.82C347.407 202.234 347.01 202.537 346.509 202.729C346.012 202.925 345.458 203.023 344.849 203.023ZM344.809 198.827C345.28 198.827 345.677 198.719 346.002 198.504C346.327 198.288 346.574 197.978 346.743 197.574C346.912 197.17 346.996 196.686 346.996 196.122C346.996 195.572 346.914 195.086 346.748 194.665C346.582 194.245 346.337 193.915 346.012 193.676C345.687 193.437 345.286 193.318 344.809 193.318C344.312 193.318 343.897 193.444 343.566 193.696C343.238 193.948 342.991 194.286 342.825 194.71C342.663 195.134 342.582 195.605 342.582 196.122C342.582 196.652 342.664 197.121 342.83 197.529C342.999 197.933 343.248 198.252 343.576 198.484C343.907 198.712 344.318 198.827 344.809 198.827ZM350.297 200V192.364H351.431V193.517H351.511C351.65 193.139 351.902 192.833 352.266 192.597C352.631 192.362 353.042 192.244 353.499 192.244C353.585 192.244 353.693 192.246 353.822 192.249C353.952 192.253 354.049 192.258 354.116 192.264V193.457C354.076 193.447 353.985 193.433 353.842 193.413C353.703 193.389 353.556 193.378 353.4 193.378C353.029 193.378 352.697 193.456 352.405 193.612C352.117 193.764 351.888 193.976 351.719 194.248C351.554 194.516 351.471 194.823 351.471 195.168V200H350.297ZM357.754 200.179C357.27 200.179 356.831 200.088 356.436 199.906C356.042 199.72 355.729 199.453 355.497 199.105C355.265 198.754 355.149 198.33 355.149 197.832C355.149 197.395 355.235 197.04 355.407 196.768C355.579 196.493 355.81 196.278 356.098 196.122C356.386 195.966 356.705 195.85 357.053 195.774C357.404 195.695 357.757 195.632 358.112 195.585C358.576 195.526 358.952 195.481 359.24 195.451C359.532 195.418 359.744 195.363 359.877 195.287C360.012 195.211 360.08 195.078 360.08 194.889V194.849C360.08 194.359 359.946 193.978 359.678 193.706C359.412 193.434 359.01 193.298 358.47 193.298C357.909 193.298 357.47 193.421 357.152 193.666C356.834 193.911 356.61 194.173 356.481 194.452L355.367 194.054C355.566 193.59 355.831 193.229 356.163 192.97C356.497 192.708 356.862 192.526 357.256 192.423C357.654 192.317 358.045 192.264 358.43 192.264C358.675 192.264 358.957 192.294 359.275 192.354C359.596 192.41 359.906 192.528 360.205 192.707C360.506 192.886 360.756 193.156 360.955 193.517C361.154 193.878 361.254 194.362 361.254 194.969V200H360.08V198.966H360.021C359.941 199.132 359.809 199.309 359.623 199.498C359.437 199.687 359.19 199.848 358.882 199.98C358.574 200.113 358.198 200.179 357.754 200.179ZM357.933 199.125C358.397 199.125 358.788 199.034 359.106 198.852C359.427 198.669 359.669 198.434 359.832 198.146C359.997 197.857 360.08 197.554 360.08 197.236V196.162C360.031 196.222 359.921 196.276 359.752 196.326C359.586 196.372 359.394 196.414 359.176 196.45C358.96 196.483 358.75 196.513 358.544 196.54C358.342 196.563 358.178 196.583 358.052 196.599C357.747 196.639 357.462 196.704 357.197 196.793C356.935 196.879 356.723 197.01 356.56 197.186C356.401 197.358 356.322 197.594 356.322 197.892C356.322 198.3 356.473 198.608 356.774 198.817C357.079 199.022 357.465 199.125 357.933 199.125ZM363.395 202.864V192.364H364.529V193.577H364.668C364.754 193.444 364.873 193.275 365.026 193.07C365.182 192.861 365.404 192.675 365.692 192.513C365.984 192.347 366.378 192.264 366.875 192.264C367.518 192.264 368.085 192.425 368.576 192.746C369.066 193.068 369.449 193.524 369.724 194.114C369.999 194.704 370.137 195.4 370.137 196.202C370.137 197.01 369.999 197.711 369.724 198.305C369.449 198.895 369.068 199.352 368.581 199.677C368.093 199.998 367.532 200.159 366.895 200.159C366.405 200.159 366.012 200.078 365.717 199.915C365.422 199.75 365.195 199.562 365.036 199.354C364.877 199.142 364.754 198.966 364.668 198.827H364.568V202.864H363.395ZM364.549 196.182C364.549 196.759 364.633 197.267 364.802 197.708C364.971 198.146 365.218 198.489 365.543 198.737C365.868 198.982 366.265 199.105 366.736 199.105C367.227 199.105 367.636 198.976 367.964 198.717C368.295 198.455 368.544 198.104 368.71 197.663C368.879 197.219 368.963 196.725 368.963 196.182C368.963 195.645 368.88 195.161 368.715 194.73C368.552 194.296 368.305 193.953 367.974 193.701C367.646 193.446 367.233 193.318 366.736 193.318C366.259 193.318 365.858 193.439 365.533 193.681C365.208 193.92 364.963 194.254 364.797 194.685C364.631 195.113 364.549 195.612 364.549 196.182ZM373.1 195.406V200H371.926V189.818H373.1V193.557H373.199C373.378 193.162 373.647 192.849 374.005 192.617C374.366 192.382 374.846 192.264 375.446 192.264C375.967 192.264 376.422 192.369 376.813 192.577C377.205 192.783 377.508 193.099 377.723 193.527C377.942 193.951 378.051 194.491 378.051 195.148V200H376.878V195.227C376.878 194.621 376.721 194.152 376.406 193.82C376.094 193.486 375.662 193.318 375.108 193.318C374.724 193.318 374.379 193.399 374.074 193.562C373.773 193.724 373.534 193.961 373.358 194.273C373.186 194.584 373.1 194.962 373.1 195.406ZM385.607 194.074L384.553 194.372C384.487 194.196 384.389 194.026 384.26 193.86C384.134 193.691 383.961 193.552 383.743 193.442C383.524 193.333 383.244 193.278 382.902 193.278C382.435 193.278 382.046 193.386 381.734 193.602C381.426 193.814 381.272 194.084 381.272 194.412C381.272 194.704 381.378 194.934 381.59 195.103C381.802 195.272 382.133 195.413 382.584 195.526L383.718 195.804C384.401 195.97 384.909 196.223 385.244 196.565C385.579 196.903 385.746 197.339 385.746 197.872C385.746 198.31 385.62 198.701 385.368 199.045C385.12 199.39 384.772 199.662 384.324 199.861C383.877 200.06 383.357 200.159 382.763 200.159C381.984 200.159 381.34 199.99 380.829 199.652C380.319 199.314 379.996 198.82 379.86 198.17L380.973 197.892C381.08 198.303 381.28 198.611 381.575 198.817C381.873 199.022 382.263 199.125 382.743 199.125C383.29 199.125 383.724 199.009 384.046 198.777C384.371 198.542 384.533 198.26 384.533 197.932C384.533 197.667 384.44 197.445 384.255 197.266C384.069 197.083 383.784 196.947 383.4 196.858L382.127 196.56C381.428 196.394 380.914 196.137 380.586 195.789C380.261 195.438 380.098 194.999 380.098 194.472C380.098 194.041 380.219 193.66 380.461 193.328C380.707 192.997 381.04 192.737 381.461 192.548C381.885 192.359 382.366 192.264 382.902 192.264C383.658 192.264 384.251 192.43 384.682 192.761C385.116 193.093 385.425 193.53 385.607 194.074ZM389.262 198.608L389.183 199.145C389.126 199.523 389.04 199.927 388.924 200.358C388.812 200.789 388.694 201.195 388.571 201.576C388.449 201.957 388.348 202.26 388.268 202.486H387.373C387.416 202.274 387.473 201.994 387.542 201.646C387.612 201.298 387.681 200.908 387.751 200.477C387.824 200.05 387.884 199.612 387.93 199.165L387.99 198.608H389.262ZM395.374 200V192.364H396.507V193.517H396.587C396.726 193.139 396.978 192.833 397.342 192.597C397.707 192.362 398.118 192.244 398.575 192.244C398.662 192.244 398.769 192.246 398.899 192.249C399.028 192.253 399.126 192.258 399.192 192.264V193.457C399.152 193.447 399.061 193.433 398.918 193.413C398.779 193.389 398.632 193.378 398.476 193.378C398.105 193.378 397.773 193.456 397.482 193.612C397.193 193.764 396.965 193.976 396.796 194.248C396.63 194.516 396.547 194.823 396.547 195.168V200H395.374ZM403.552 200.159C402.816 200.159 402.181 199.997 401.648 199.672C401.118 199.344 400.708 198.886 400.42 198.3C400.135 197.71 399.992 197.024 399.992 196.241C399.992 195.459 400.135 194.77 400.42 194.173C400.708 193.573 401.109 193.106 401.623 192.771C402.14 192.433 402.743 192.264 403.433 192.264C403.83 192.264 404.223 192.33 404.611 192.463C404.999 192.596 405.352 192.811 405.67 193.109C405.988 193.404 406.242 193.795 406.43 194.283C406.619 194.77 406.714 195.37 406.714 196.082V196.58H400.828V195.565H405.521C405.521 195.134 405.435 194.75 405.262 194.412C405.093 194.074 404.851 193.807 404.536 193.612C404.225 193.416 403.857 193.318 403.433 193.318C402.965 193.318 402.561 193.434 402.22 193.666C401.881 193.895 401.621 194.193 401.439 194.561C401.257 194.929 401.166 195.323 401.166 195.744V196.42C401.166 196.997 401.265 197.486 401.464 197.887C401.666 198.285 401.946 198.588 402.304 198.797C402.662 199.002 403.078 199.105 403.552 199.105C403.86 199.105 404.139 199.062 404.387 198.976C404.639 198.886 404.856 198.754 405.038 198.578C405.221 198.399 405.362 198.177 405.461 197.912L406.595 198.23C406.475 198.615 406.275 198.953 405.993 199.244C405.711 199.533 405.363 199.758 404.949 199.92C404.535 200.08 404.069 200.159 403.552 200.159ZM413.908 194.074L412.854 194.372C412.787 194.196 412.69 194.026 412.56 193.86C412.435 193.691 412.262 193.552 412.043 193.442C411.825 193.333 411.545 193.278 411.203 193.278C410.736 193.278 410.346 193.386 410.035 193.602C409.727 193.814 409.573 194.084 409.573 194.412C409.573 194.704 409.679 194.934 409.891 195.103C410.103 195.272 410.434 195.413 410.885 195.526L412.019 195.804C412.701 195.97 413.21 196.223 413.545 196.565C413.88 196.903 414.047 197.339 414.047 197.872C414.047 198.31 413.921 198.701 413.669 199.045C413.421 199.39 413.073 199.662 412.625 199.861C412.178 200.06 411.657 200.159 411.064 200.159C410.285 200.159 409.64 199.99 409.13 199.652C408.62 199.314 408.296 198.82 408.161 198.17L409.274 197.892C409.38 198.303 409.581 198.611 409.876 198.817C410.174 199.022 410.564 199.125 411.044 199.125C411.591 199.125 412.025 199.009 412.347 198.777C412.671 198.542 412.834 198.26 412.834 197.932C412.834 197.667 412.741 197.445 412.555 197.266C412.37 197.083 412.085 196.947 411.7 196.858L410.428 196.56C409.728 196.394 409.215 196.137 408.886 195.789C408.562 195.438 408.399 194.999 408.399 194.472C408.399 194.041 408.52 193.66 408.762 193.328C409.007 192.997 409.341 192.737 409.761 192.548C410.186 192.359 410.666 192.264 411.203 192.264C411.959 192.264 412.552 192.43 412.983 192.761C413.417 193.093 413.725 193.53 413.908 194.074ZM419.015 200.159C418.279 200.159 417.644 199.997 417.111 199.672C416.58 199.344 416.171 198.886 415.883 198.3C415.598 197.71 415.455 197.024 415.455 196.241C415.455 195.459 415.598 194.77 415.883 194.173C416.171 193.573 416.572 193.106 417.086 192.771C417.603 192.433 418.206 192.264 418.896 192.264C419.293 192.264 419.686 192.33 420.074 192.463C420.462 192.596 420.815 192.811 421.133 193.109C421.451 193.404 421.704 193.795 421.893 194.283C422.082 194.77 422.177 195.37 422.177 196.082V196.58H416.29V195.565H420.984C420.984 195.134 420.897 194.75 420.725 194.412C420.556 194.074 420.314 193.807 419.999 193.612C419.688 193.416 419.32 193.318 418.896 193.318C418.428 193.318 418.024 193.434 417.682 193.666C417.344 193.895 417.084 194.193 416.902 194.561C416.72 194.929 416.628 195.323 416.628 195.744V196.42C416.628 196.997 416.728 197.486 416.927 197.887C417.129 198.285 417.409 198.588 417.767 198.797C418.125 199.002 418.541 199.105 419.015 199.105C419.323 199.105 419.601 199.062 419.85 198.976C420.102 198.886 420.319 198.754 420.501 198.578C420.684 198.399 420.824 198.177 420.924 197.912L422.057 198.23C421.938 198.615 421.738 198.953 421.456 199.244C421.174 199.533 420.826 199.758 420.412 199.92C419.998 200.08 419.532 200.159 419.015 200.159ZM426.209 200.179C425.725 200.179 425.286 200.088 424.891 199.906C424.497 199.72 424.184 199.453 423.952 199.105C423.72 198.754 423.604 198.33 423.604 197.832C423.604 197.395 423.69 197.04 423.862 196.768C424.034 196.493 424.265 196.278 424.553 196.122C424.842 195.966 425.16 195.85 425.508 195.774C425.859 195.695 426.212 195.632 426.567 195.585C427.031 195.526 427.407 195.481 427.695 195.451C427.987 195.418 428.199 195.363 428.332 195.287C428.467 195.211 428.535 195.078 428.535 194.889V194.849C428.535 194.359 428.401 193.978 428.133 193.706C427.868 193.434 427.465 193.298 426.925 193.298C426.364 193.298 425.925 193.421 425.607 193.666C425.289 193.911 425.065 194.173 424.936 194.452L423.822 194.054C424.021 193.59 424.286 193.229 424.618 192.97C424.953 192.708 425.317 192.526 425.712 192.423C426.109 192.317 426.5 192.264 426.885 192.264C427.13 192.264 427.412 192.294 427.73 192.354C428.052 192.41 428.361 192.528 428.66 192.707C428.961 192.886 429.212 193.156 429.41 193.517C429.609 193.878 429.709 194.362 429.709 194.969V200H428.535V198.966H428.476C428.396 199.132 428.264 199.309 428.078 199.498C427.892 199.687 427.646 199.848 427.337 199.98C427.029 200.113 426.653 200.179 426.209 200.179ZM426.388 199.125C426.852 199.125 427.243 199.034 427.561 198.852C427.882 198.669 428.124 198.434 428.287 198.146C428.453 197.857 428.535 197.554 428.535 197.236V196.162C428.486 196.222 428.376 196.276 428.207 196.326C428.042 196.372 427.849 196.414 427.631 196.45C427.415 196.483 427.205 196.513 426.999 196.54C426.797 196.563 426.633 196.583 426.507 196.599C426.202 196.639 425.917 196.704 425.652 196.793C425.39 196.879 425.178 197.01 425.016 197.186C424.856 197.358 424.777 197.594 424.777 197.892C424.777 198.3 424.928 198.608 425.229 198.817C425.534 199.022 425.92 199.125 426.388 199.125ZM431.85 200V192.364H432.984V193.517H433.063C433.203 193.139 433.454 192.833 433.819 192.597C434.184 192.362 434.595 192.244 435.052 192.244C435.138 192.244 435.246 192.246 435.375 192.249C435.504 192.253 435.602 192.258 435.668 192.264V193.457C435.629 193.447 435.537 193.433 435.395 193.413C435.256 193.389 435.108 193.378 434.953 193.378C434.581 193.378 434.25 193.456 433.958 193.612C433.67 193.764 433.441 193.976 433.272 194.248C433.106 194.516 433.024 194.823 433.024 195.168V200H431.85ZM439.929 200.159C439.213 200.159 438.597 199.99 438.08 199.652C437.563 199.314 437.165 198.848 436.886 198.255C436.608 197.662 436.469 196.984 436.469 196.222C436.469 195.446 436.611 194.762 436.896 194.168C437.185 193.572 437.586 193.106 438.1 192.771C438.617 192.433 439.22 192.264 439.909 192.264C440.446 192.264 440.93 192.364 441.361 192.562C441.792 192.761 442.145 193.04 442.42 193.398C442.695 193.756 442.866 194.173 442.932 194.651H441.759C441.669 194.303 441.47 193.994 441.162 193.726C440.857 193.454 440.446 193.318 439.929 193.318C439.472 193.318 439.071 193.437 438.726 193.676C438.385 193.911 438.118 194.245 437.926 194.675C437.737 195.103 437.642 195.605 437.642 196.182C437.642 196.772 437.735 197.286 437.921 197.723C438.109 198.161 438.375 198.5 438.716 198.742C439.061 198.984 439.465 199.105 439.929 199.105C440.234 199.105 440.511 199.052 440.759 198.946C441.008 198.84 441.218 198.688 441.391 198.489C441.563 198.29 441.686 198.051 441.759 197.773H442.932C442.866 198.223 442.702 198.629 442.44 198.991C442.181 199.349 441.838 199.634 441.411 199.846C440.986 200.055 440.493 200.159 439.929 200.159ZM445.82 195.406V200H444.647V189.818H445.82V193.557H445.92C446.099 193.162 446.367 192.849 446.725 192.617C447.086 192.382 447.567 192.264 448.167 192.264C448.687 192.264 449.143 192.369 449.534 192.577C449.925 192.783 450.229 193.099 450.444 193.527C450.663 193.951 450.772 194.491 450.772 195.148V200H449.599V195.227C449.599 194.621 449.441 194.152 449.127 193.82C448.815 193.486 448.382 193.318 447.829 193.318C447.444 193.318 447.1 193.399 446.795 193.562C446.493 193.724 446.255 193.961 446.079 194.273C445.907 194.584 445.82 194.962 445.82 195.406ZM454.669 198.608L454.589 199.145C454.533 199.523 454.447 199.927 454.331 200.358C454.218 200.789 454.1 201.195 453.978 201.576C453.855 201.957 453.754 202.26 453.674 202.486H452.779C452.822 202.274 452.879 201.994 452.948 201.646C453.018 201.298 453.088 200.908 453.157 200.477C453.23 200.05 453.29 199.612 453.336 199.165L453.396 198.608H454.669ZM462.51 200L460.183 192.364H461.416L463.067 198.21H463.146L464.777 192.364H466.03L467.641 198.19H467.72L469.371 192.364H470.604L468.277 200H467.124L465.453 194.134H465.334L463.663 200H462.51ZM475.097 200.159C474.361 200.159 473.726 199.997 473.193 199.672C472.662 199.344 472.253 198.886 471.965 198.3C471.68 197.71 471.537 197.024 471.537 196.241C471.537 195.459 471.68 194.77 471.965 194.173C472.253 193.573 472.654 193.106 473.168 192.771C473.685 192.433 474.288 192.264 474.978 192.264C475.375 192.264 475.768 192.33 476.156 192.463C476.544 192.596 476.897 192.811 477.215 193.109C477.533 193.404 477.786 193.795 477.975 194.283C478.164 194.77 478.259 195.37 478.259 196.082V196.58H472.372V195.565H477.066C477.066 195.134 476.979 194.75 476.807 194.412C476.638 194.074 476.396 193.807 476.081 193.612C475.77 193.416 475.402 193.318 474.978 193.318C474.51 193.318 474.106 193.434 473.764 193.666C473.426 193.895 473.166 194.193 472.984 194.561C472.802 194.929 472.71 195.323 472.71 195.744V196.42C472.71 196.997 472.81 197.486 473.009 197.887C473.211 198.285 473.491 198.588 473.849 198.797C474.207 199.002 474.623 199.105 475.097 199.105C475.405 199.105 475.684 199.062 475.932 198.976C476.184 198.886 476.401 198.754 476.583 198.578C476.766 198.399 476.907 198.177 477.006 197.912L478.139 198.23C478.02 198.615 477.82 198.953 477.538 199.244C477.256 199.533 476.908 199.758 476.494 199.92C476.08 200.08 475.614 200.159 475.097 200.159ZM487.063 203.023C486.497 203.023 486.009 202.95 485.602 202.804C485.194 202.661 484.854 202.473 484.583 202.237C484.314 202.005 484.1 201.757 483.941 201.491L484.876 200.835C484.982 200.974 485.116 201.134 485.279 201.312C485.441 201.495 485.663 201.652 485.945 201.785C486.23 201.921 486.603 201.989 487.063 201.989C487.68 201.989 488.189 201.839 488.59 201.541C488.991 201.243 489.191 200.776 489.191 200.139V198.588H489.092C489.006 198.727 488.883 198.9 488.724 199.105C488.568 199.307 488.343 199.488 488.048 199.647C487.756 199.803 487.362 199.881 486.865 199.881C486.248 199.881 485.695 199.735 485.204 199.443C484.717 199.152 484.331 198.727 484.046 198.17C483.764 197.614 483.623 196.937 483.623 196.142C483.623 195.36 483.761 194.679 484.036 194.099C484.311 193.515 484.694 193.065 485.184 192.746C485.675 192.425 486.242 192.264 486.884 192.264C487.382 192.264 487.776 192.347 488.068 192.513C488.363 192.675 488.588 192.861 488.744 193.07C488.903 193.275 489.026 193.444 489.112 193.577H489.231V192.364H490.365V200.219C490.365 200.875 490.215 201.409 489.917 201.82C489.622 202.234 489.224 202.537 488.724 202.729C488.227 202.925 487.673 203.023 487.063 203.023ZM487.024 198.827C487.494 198.827 487.892 198.719 488.217 198.504C488.542 198.288 488.789 197.978 488.958 197.574C489.127 197.17 489.211 196.686 489.211 196.122C489.211 195.572 489.128 195.086 488.963 194.665C488.797 194.245 488.552 193.915 488.227 193.676C487.902 193.437 487.501 193.318 487.024 193.318C486.527 193.318 486.112 193.444 485.781 193.696C485.453 193.948 485.206 194.286 485.04 194.71C484.878 195.134 484.796 195.605 484.796 196.122C484.796 196.652 484.879 197.121 485.045 197.529C485.214 197.933 485.463 198.252 485.791 198.484C486.122 198.712 486.533 198.827 487.024 198.827ZM495.714 200.159C494.978 200.159 494.344 199.997 493.81 199.672C493.28 199.344 492.87 198.886 492.582 198.3C492.297 197.71 492.154 197.024 492.154 196.241C492.154 195.459 492.297 194.77 492.582 194.173C492.87 193.573 493.271 193.106 493.785 192.771C494.302 192.433 494.905 192.264 495.595 192.264C495.992 192.264 496.385 192.33 496.773 192.463C497.161 192.596 497.514 192.811 497.832 193.109C498.15 193.404 498.404 193.795 498.593 194.283C498.782 194.77 498.876 195.37 498.876 196.082V196.58H492.99V195.565H497.683C497.683 195.134 497.597 194.75 497.424 194.412C497.255 194.074 497.013 193.807 496.698 193.612C496.387 193.416 496.019 193.318 495.595 193.318C495.127 193.318 494.723 193.434 494.382 193.666C494.044 193.895 493.783 194.193 493.601 194.561C493.419 194.929 493.328 195.323 493.328 195.744V196.42C493.328 196.997 493.427 197.486 493.626 197.887C493.828 198.285 494.108 198.588 494.466 198.797C494.824 199.002 495.24 199.105 495.714 199.105C496.022 199.105 496.301 199.062 496.549 198.976C496.801 198.886 497.018 198.754 497.201 198.578C497.383 198.399 497.524 198.177 497.623 197.912L498.757 198.23C498.637 198.615 498.437 198.953 498.155 199.244C497.873 199.533 497.525 199.758 497.111 199.92C496.697 200.08 496.231 200.159 495.714 200.159ZM503.982 192.364V193.358H500.024V192.364H503.982ZM501.178 190.534H502.351V197.812C502.351 198.144 502.399 198.393 502.495 198.558C502.595 198.721 502.721 198.83 502.873 198.886C503.029 198.939 503.193 198.966 503.365 198.966C503.495 198.966 503.601 198.959 503.684 198.946C503.766 198.929 503.833 198.916 503.882 198.906L504.121 199.96C504.041 199.99 503.93 200.02 503.788 200.05C503.645 200.083 503.465 200.099 503.246 200.099C502.915 200.099 502.59 200.028 502.272 199.886C501.957 199.743 501.695 199.526 501.486 199.234C501.281 198.943 501.178 198.575 501.178 198.131V190.534ZM509.684 200V192.364H510.858V200H509.684ZM510.281 191.091C510.052 191.091 509.855 191.013 509.689 190.857C509.527 190.701 509.446 190.514 509.446 190.295C509.446 190.077 509.527 189.889 509.689 189.734C509.855 189.578 510.052 189.5 510.281 189.5C510.509 189.5 510.705 189.578 510.867 189.734C511.033 189.889 511.116 190.077 511.116 190.295C511.116 190.514 511.033 190.701 510.867 190.857C510.705 191.013 510.509 191.091 510.281 191.091ZM516.328 192.364V193.358H512.37V192.364H516.328ZM513.524 190.534H514.697V197.812C514.697 198.144 514.745 198.393 514.841 198.558C514.94 198.721 515.066 198.83 515.219 198.886C515.375 198.939 515.539 198.966 515.711 198.966C515.84 198.966 515.946 198.959 516.029 198.946C516.112 198.929 516.178 198.916 516.228 198.906L516.467 199.96C516.387 199.99 516.276 200.02 516.134 200.05C515.991 200.083 515.81 200.099 515.592 200.099C515.26 200.099 514.935 200.028 514.617 199.886C514.302 199.743 514.041 199.526 513.832 199.234C513.626 198.943 513.524 198.575 513.524 198.131V190.534ZM524.277 200.179C523.793 200.179 523.354 200.088 522.96 199.906C522.565 199.72 522.252 199.453 522.02 199.105C521.788 198.754 521.672 198.33 521.672 197.832C521.672 197.395 521.758 197.04 521.93 196.768C522.103 196.493 522.333 196.278 522.622 196.122C522.91 195.966 523.228 195.85 523.576 195.774C523.927 195.695 524.28 195.632 524.635 195.585C525.099 195.526 525.475 195.481 525.764 195.451C526.055 195.418 526.267 195.363 526.4 195.287C526.536 195.211 526.604 195.078 526.604 194.889V194.849C526.604 194.359 526.47 193.978 526.201 193.706C525.936 193.434 525.533 193.298 524.993 193.298C524.433 193.298 523.994 193.421 523.676 193.666C523.357 193.911 523.134 194.173 523.004 194.452L521.891 194.054C522.09 193.59 522.355 193.229 522.686 192.97C523.021 192.708 523.386 192.526 523.78 192.423C524.178 192.317 524.569 192.264 524.953 192.264C525.198 192.264 525.48 192.294 525.798 192.354C526.12 192.41 526.43 192.528 526.728 192.707C527.03 192.886 527.28 193.156 527.479 193.517C527.678 193.878 527.777 194.362 527.777 194.969V200H526.604V198.966H526.544C526.465 199.132 526.332 199.309 526.146 199.498C525.961 199.687 525.714 199.848 525.406 199.98C525.097 200.113 524.721 200.179 524.277 200.179ZM524.456 199.125C524.92 199.125 525.311 199.034 525.629 198.852C525.951 198.669 526.193 198.434 526.355 198.146C526.521 197.857 526.604 197.554 526.604 197.236V196.162C526.554 196.222 526.445 196.276 526.276 196.326C526.11 196.372 525.918 196.414 525.699 196.45C525.484 196.483 525.273 196.513 525.068 196.54C524.865 196.563 524.701 196.583 524.575 196.599C524.27 196.639 523.985 196.704 523.72 196.793C523.458 196.879 523.246 197.01 523.084 197.186C522.925 197.358 522.845 197.594 522.845 197.892C522.845 198.3 522.996 198.608 523.298 198.817C523.603 199.022 523.989 199.125 524.456 199.125ZM531.092 189.818V200H529.919V189.818H531.092ZM534.414 189.818V200H533.241V189.818H534.414ZM543.901 192.364V193.358H539.785V192.364H543.901ZM541.018 200V191.31C541.018 190.872 541.12 190.508 541.326 190.216C541.531 189.924 541.798 189.705 542.126 189.56C542.454 189.414 542.801 189.341 543.165 189.341C543.454 189.341 543.689 189.364 543.871 189.411C544.054 189.457 544.19 189.5 544.279 189.54L543.941 190.554C543.881 190.534 543.798 190.509 543.692 190.479C543.59 190.45 543.454 190.435 543.285 190.435C542.897 190.435 542.617 190.532 542.445 190.728C542.275 190.924 542.191 191.21 542.191 191.588V200H541.018ZM548.333 200.159C547.644 200.159 547.039 199.995 546.519 199.667C546.002 199.339 545.597 198.88 545.306 198.29C545.017 197.7 544.873 197.01 544.873 196.222C544.873 195.426 545.017 194.732 545.306 194.138C545.597 193.545 546.002 193.085 546.519 192.756C547.039 192.428 547.644 192.264 548.333 192.264C549.023 192.264 549.626 192.428 550.143 192.756C550.663 193.085 551.068 193.545 551.356 194.138C551.648 194.732 551.794 195.426 551.794 196.222C551.794 197.01 551.648 197.7 551.356 198.29C551.068 198.88 550.663 199.339 550.143 199.667C549.626 199.995 549.023 200.159 548.333 200.159ZM548.333 199.105C548.857 199.105 549.288 198.971 549.626 198.702C549.964 198.434 550.214 198.081 550.377 197.643C550.539 197.206 550.62 196.732 550.62 196.222C550.62 195.711 550.539 195.236 550.377 194.795C550.214 194.354 549.964 193.998 549.626 193.726C549.288 193.454 548.857 193.318 548.333 193.318C547.81 193.318 547.379 193.454 547.041 193.726C546.703 193.998 546.452 194.354 546.29 194.795C546.128 195.236 546.046 195.711 546.046 196.222C546.046 196.732 546.128 197.206 546.29 197.643C546.452 198.081 546.703 198.434 547.041 198.702C547.379 198.971 547.81 199.105 548.333 199.105ZM553.585 200V192.364H554.718V193.517H554.798C554.937 193.139 555.189 192.833 555.553 192.597C555.918 192.362 556.329 192.244 556.786 192.244C556.872 192.244 556.98 192.246 557.109 192.249C557.239 192.253 557.337 192.258 557.403 192.264V193.457C557.363 193.447 557.272 193.433 557.129 193.413C556.99 193.389 556.843 193.378 556.687 193.378C556.316 193.378 555.984 193.456 555.693 193.612C555.404 193.764 555.176 193.976 555.006 194.248C554.841 194.516 554.758 194.823 554.758 195.168V200H553.585ZM563.487 202.864C563.288 202.864 563.111 202.847 562.955 202.814C562.799 202.784 562.691 202.754 562.632 202.724L562.93 201.69C563.215 201.763 563.467 201.79 563.686 201.77C563.904 201.75 564.098 201.652 564.267 201.477C564.44 201.304 564.597 201.024 564.74 200.636L564.958 200.04L562.134 192.364H563.407L565.515 198.449H565.595L567.703 192.364H568.975L565.734 201.114C565.588 201.508 565.407 201.835 565.192 202.093C564.977 202.355 564.726 202.549 564.441 202.675C564.16 202.801 563.841 202.864 563.487 202.864ZM573.353 200.159C572.664 200.159 572.059 199.995 571.538 199.667C571.021 199.339 570.617 198.88 570.325 198.29C570.037 197.7 569.893 197.01 569.893 196.222C569.893 195.426 570.037 194.732 570.325 194.138C570.617 193.545 571.021 193.085 571.538 192.756C572.059 192.428 572.664 192.264 573.353 192.264C574.042 192.264 574.646 192.428 575.163 192.756C575.683 193.085 576.087 193.545 576.376 194.138C576.667 194.732 576.813 195.426 576.813 196.222C576.813 197.01 576.667 197.7 576.376 198.29C576.087 198.88 575.683 199.339 575.163 199.667C574.646 199.995 574.042 200.159 573.353 200.159ZM573.353 199.105C573.877 199.105 574.307 198.971 574.646 198.702C574.984 198.434 575.234 198.081 575.396 197.643C575.559 197.206 575.64 196.732 575.64 196.222C575.64 195.711 575.559 195.236 575.396 194.795C575.234 194.354 574.984 193.998 574.646 193.726C574.307 193.454 573.877 193.318 573.353 193.318C572.829 193.318 572.398 193.454 572.06 193.726C571.722 193.998 571.472 194.354 571.31 194.795C571.147 195.236 571.066 195.711 571.066 196.222C571.066 196.732 571.147 197.206 571.31 197.643C571.472 198.081 571.722 198.434 572.06 198.702C572.398 198.971 572.829 199.105 573.353 199.105ZM583.417 196.878V192.364H584.59V200H583.417V198.707H583.337C583.158 199.095 582.88 199.425 582.502 199.697C582.124 199.965 581.647 200.099 581.07 200.099C580.593 200.099 580.169 199.995 579.797 199.786C579.426 199.574 579.134 199.256 578.922 198.832C578.71 198.404 578.604 197.866 578.604 197.216V192.364H579.777V197.136C579.777 197.693 579.933 198.137 580.245 198.469C580.56 198.8 580.961 198.966 581.448 198.966C581.74 198.966 582.036 198.891 582.338 198.742C582.643 198.593 582.898 198.364 583.103 198.056C583.312 197.748 583.417 197.355 583.417 196.878ZM595.489 196.878V192.364H596.662V200H595.489V198.707H595.409C595.23 199.095 594.952 199.425 594.574 199.697C594.196 199.965 593.719 200.099 593.142 200.099C592.665 200.099 592.241 199.995 591.87 199.786C591.498 199.574 591.207 199.256 590.995 198.832C590.782 198.404 590.676 197.866 590.676 197.216V192.364H591.85V197.136C591.85 197.693 592.005 198.137 592.317 198.469C592.632 198.8 593.033 198.966 593.52 198.966C593.812 198.966 594.108 198.891 594.41 198.742C594.715 198.593 594.97 198.364 595.176 198.056C595.384 197.748 595.489 197.355 595.489 196.878ZM599.984 195.406V200H598.811V192.364H599.945V193.557H600.044C600.223 193.169 600.495 192.857 600.859 192.622C601.224 192.384 601.695 192.264 602.271 192.264C602.788 192.264 603.241 192.37 603.629 192.582C604.016 192.791 604.318 193.109 604.533 193.537C604.749 193.961 604.857 194.498 604.857 195.148V200H603.683V195.227C603.683 194.627 603.528 194.16 603.216 193.825C602.904 193.487 602.477 193.318 601.933 193.318C601.559 193.318 601.224 193.399 600.929 193.562C600.637 193.724 600.407 193.961 600.238 194.273C600.069 194.584 599.984 194.962 599.984 195.406ZM609.884 200.159C609.248 200.159 608.686 199.998 608.199 199.677C607.712 199.352 607.33 198.895 607.055 198.305C606.78 197.711 606.643 197.01 606.643 196.202C606.643 195.4 606.78 194.704 607.055 194.114C607.33 193.524 607.713 193.068 608.204 192.746C608.694 192.425 609.261 192.264 609.904 192.264C610.401 192.264 610.794 192.347 611.082 192.513C611.374 192.675 611.596 192.861 611.748 193.07C611.904 193.275 612.025 193.444 612.111 193.577H612.211V189.818H613.384V200H612.251V198.827H612.111C612.025 198.966 611.903 199.142 611.744 199.354C611.584 199.562 611.357 199.75 611.062 199.915C610.767 200.078 610.375 200.159 609.884 200.159ZM610.043 199.105C610.514 199.105 610.912 198.982 611.236 198.737C611.561 198.489 611.808 198.146 611.977 197.708C612.146 197.267 612.231 196.759 612.231 196.182C612.231 195.612 612.148 195.113 611.982 194.685C611.816 194.254 611.571 193.92 611.246 193.681C610.922 193.439 610.521 193.318 610.043 193.318C609.546 193.318 609.132 193.446 608.8 193.701C608.472 193.953 608.225 194.296 608.06 194.73C607.897 195.161 607.816 195.645 607.816 196.182C607.816 196.725 607.899 197.219 608.065 197.663C608.234 198.104 608.482 198.455 608.81 198.717C609.142 198.976 609.553 199.105 610.043 199.105ZM618.898 200.159C618.162 200.159 617.527 199.997 616.994 199.672C616.463 199.344 616.054 198.886 615.766 198.3C615.48 197.71 615.338 197.024 615.338 196.241C615.338 195.459 615.48 194.77 615.766 194.173C616.054 193.573 616.455 193.106 616.969 192.771C617.486 192.433 618.089 192.264 618.778 192.264C619.176 192.264 619.569 192.33 619.957 192.463C620.344 192.596 620.697 192.811 621.016 193.109C621.334 193.404 621.587 193.795 621.776 194.283C621.965 194.77 622.06 195.37 622.06 196.082V196.58H616.173V195.565H620.866C620.866 195.134 620.78 194.75 620.608 194.412C620.439 194.074 620.197 193.807 619.882 193.612C619.57 193.416 619.203 193.318 618.778 193.318C618.311 193.318 617.907 193.434 617.565 193.666C617.227 193.895 616.967 194.193 616.785 194.561C616.602 194.929 616.511 195.323 616.511 195.744V196.42C616.511 196.997 616.611 197.486 616.81 197.887C617.012 198.285 617.292 198.588 617.65 198.797C618.008 199.002 618.424 199.105 618.898 199.105C619.206 199.105 619.484 199.062 619.733 198.976C619.985 198.886 620.202 198.754 620.384 198.578C620.566 198.399 620.707 198.177 620.807 197.912L621.94 198.23C621.821 198.615 621.62 198.953 621.339 199.244C621.057 199.533 620.709 199.758 620.295 199.92C619.88 200.08 619.415 200.159 618.898 200.159ZM623.844 200V192.364H624.978V193.517H625.057C625.197 193.139 625.449 192.833 625.813 192.597C626.178 192.362 626.589 192.244 627.046 192.244C627.132 192.244 627.24 192.246 627.369 192.249C627.498 192.253 627.596 192.258 627.663 192.264V193.457C627.623 193.447 627.532 193.433 627.389 193.413C627.25 193.389 627.102 193.378 626.947 193.378C626.575 193.378 626.244 193.456 625.952 193.612C625.664 193.764 625.435 193.976 625.266 194.248C625.101 194.516 625.018 194.823 625.018 195.168V200H623.844ZM637.172 189.818V200H635.019V191.862H634.96L632.628 193.323V191.414L635.149 189.818H637.172ZM643.584 200.224C642.729 200.22 641.993 200.01 641.377 199.592C640.764 199.175 640.291 198.57 639.96 197.778C639.632 196.986 639.469 196.033 639.473 194.919C639.473 193.809 639.637 192.862 639.965 192.08C640.296 191.298 640.768 190.703 641.382 190.295C641.998 189.884 642.732 189.679 643.584 189.679C644.436 189.679 645.168 189.884 645.782 190.295C646.398 190.706 646.872 191.303 647.203 192.085C647.535 192.864 647.699 193.809 647.696 194.919C647.696 196.036 647.53 196.991 647.198 197.783C646.87 198.575 646.4 199.18 645.786 199.597C645.173 200.015 644.439 200.224 643.584 200.224ZM643.584 198.439C644.167 198.439 644.633 198.146 644.981 197.559C645.329 196.972 645.501 196.092 645.498 194.919C645.498 194.147 645.419 193.504 645.259 192.99C645.104 192.476 644.882 192.09 644.593 191.832C644.308 191.573 643.972 191.444 643.584 191.444C643.004 191.444 642.54 191.734 642.192 192.314C641.844 192.894 641.668 193.762 641.665 194.919C641.665 195.701 641.743 196.354 641.899 196.878C642.058 197.398 642.282 197.789 642.57 198.051C642.858 198.31 643.196 198.439 643.584 198.439ZM653.223 200.224C652.368 200.22 651.632 200.01 651.015 199.592C650.402 199.175 649.93 198.57 649.598 197.778C649.27 196.986 649.108 196.033 649.111 194.919C649.111 193.809 649.275 192.862 649.603 192.08C649.935 191.298 650.407 190.703 651.02 190.295C651.637 189.884 652.371 189.679 653.223 189.679C654.075 189.679 654.807 189.884 655.42 190.295C656.037 190.706 656.511 191.303 656.842 192.085C657.174 192.864 657.338 193.809 657.334 194.919C657.334 196.036 657.169 196.991 656.837 197.783C656.509 198.575 656.038 199.18 655.425 199.597C654.812 200.015 654.078 200.224 653.223 200.224ZM653.223 198.439C653.806 198.439 654.272 198.146 654.62 197.559C654.968 196.972 655.14 196.092 655.137 194.919C655.137 194.147 655.057 193.504 654.898 192.99C654.742 192.476 654.52 192.09 654.232 191.832C653.947 191.573 653.611 191.444 653.223 191.444C652.643 191.444 652.179 191.734 651.831 192.314C651.483 192.894 651.307 193.762 651.304 194.919C651.304 195.701 651.382 196.354 651.537 196.878C651.696 197.398 651.92 197.789 652.209 198.051C652.497 198.31 652.835 198.439 653.223 198.439ZM658.889 200V192.364H660.908V193.711H660.997C661.156 193.263 661.421 192.911 661.793 192.652C662.164 192.393 662.608 192.264 663.125 192.264C663.649 192.264 664.094 192.395 664.462 192.657C664.83 192.915 665.075 193.267 665.198 193.711H665.278C665.433 193.273 665.715 192.924 666.123 192.662C666.534 192.397 667.019 192.264 667.579 192.264C668.292 192.264 668.87 192.491 669.315 192.945C669.762 193.396 669.986 194.036 669.986 194.864V200H667.873V195.282C667.873 194.858 667.76 194.54 667.535 194.327C667.309 194.115 667.028 194.009 666.69 194.009C666.305 194.009 666.005 194.132 665.79 194.377C665.574 194.619 665.467 194.939 665.467 195.337V200H663.413V195.237C663.413 194.863 663.306 194.564 663.09 194.342C662.878 194.12 662.598 194.009 662.25 194.009C662.015 194.009 661.802 194.069 661.614 194.188C661.428 194.304 661.28 194.468 661.171 194.68C661.062 194.889 661.007 195.134 661.007 195.416V200H658.889ZM678.012 194.541L676.073 194.661C676.04 194.495 675.969 194.346 675.86 194.213C675.75 194.077 675.606 193.969 675.427 193.89C675.251 193.807 675.041 193.766 674.796 193.766C674.468 193.766 674.191 193.835 673.965 193.974C673.74 194.11 673.627 194.293 673.627 194.521C673.627 194.704 673.7 194.858 673.846 194.984C673.992 195.11 674.242 195.211 674.597 195.287L675.979 195.565C676.721 195.718 677.275 195.963 677.639 196.301C678.004 196.639 678.186 197.083 678.186 197.634C678.186 198.134 678.039 198.573 677.744 198.951C677.452 199.329 677.051 199.624 676.541 199.836C676.034 200.045 675.449 200.149 674.786 200.149C673.775 200.149 672.969 199.939 672.37 199.518C671.773 199.094 671.423 198.517 671.321 197.788L673.404 197.678C673.467 197.987 673.619 198.222 673.861 198.384C674.103 198.543 674.413 198.623 674.791 198.623C675.162 198.623 675.46 198.552 675.686 198.409C675.914 198.263 676.03 198.076 676.034 197.847C676.03 197.655 675.949 197.498 675.79 197.375C675.631 197.249 675.386 197.153 675.054 197.087L673.732 196.823C672.986 196.674 672.431 196.415 672.066 196.048C671.705 195.68 671.524 195.211 671.524 194.641C671.524 194.15 671.657 193.728 671.922 193.373C672.191 193.018 672.567 192.745 673.051 192.553C673.538 192.36 674.108 192.264 674.761 192.264C675.725 192.264 676.484 192.468 677.038 192.876C677.595 193.283 677.92 193.839 678.012 194.541Z" fill="#7D7D7D"/>
<defs>
<filter id="filter0_d_501_116" x="0" y="0" width="836" height="235" filterUnits="userSpaceOnUse" color-interpolation-filters="sRGB">
<feFlood flood-opacity="0" result="BackgroundImageFix"/>
<feColorMatrix in="SourceAlpha" type="matrix" values="0 0 0 0 0 0 0 0 0 0 0 0 0 0 0 0 0 0 127 0" result="hardAlpha"/>
<feOffset dy="4"/>
<feGaussianBlur stdDeviation="2"/>
<feComposite in2="hardAlpha" operator="out"/>
<feColorMatrix type="matrix" values="0 0 0 0 0 0 0 0 0 0 0 0 0 0 0 0 0 0 0.25 0"/>
<feBlend mode="normal" in2="BackgroundImageFix" result="effect1_dropShadow_501_116"/>
<feBlend mode="normal" in="SourceGraphic" in2="effect1_dropShadow_501_116" result="shape"/>
</filter>
<linearGradient id="paint0_linear_501_116" x1="318.417" y1="125.981" x2="521.193" y2="126.987" gradientUnits="userSpaceOnUse">
<stop stop-color="#F06625"/>
<stop offset="1" stop-color="#F9B818"/>
</linearGradient>
</defs>
</svg>
